<svg version="1" xmlns="http://www.w3.org/2000/svg" width="1333.333" height="1333.333" viewBox="0 0 1000.000000 1000.000000"><path d="M16.6 1.5c-.3.9-.4 2.1-.1 2.6.4.5-.2.6-1.1.2-1.2-.4-1.5-.2-1.2.8.2.8 1.4 1.5 2.6 1.7 1.9.3 2.1-.1 1.8-2.8-.4-3.7-1.1-4.6-2-2.5zM24 2c0 1.1.7 2 1.5 2 1.7 0 1.7 3 0 4.2-.5.4-.1 1.5 1 2.7 1.9 2.2 1.3 4.3-.6 2.4-.6-.6-1.8-.9-2.5-.6-.8.3-1.4 0-1.4-.6s.5-1.1 1.1-1.1c.6 0 .9-.9.6-2-.3-1.1-.1-2 .4-2s.9-.4.9-.9c0-.4-1-.7-2.2-.6-3.2.3-3.2.3-1.8 2 1.5 1.9-.3 4.5-3.1 4.5-1 0-2.1.5-2.5 1.2-.5.8.2.9 2.4.5 3.3-.7 4.5.8 1.5 1.7-1 .3-.1.3 2 0 3.3-.4 3.7-.3 3.7 1.8 0 1.7-.3 1.9-.9.9-1.1-1.7-3.2-.5-2.4 1.4.6 1.7-2.2 2.1-3.2.5-1-1.7-2.5-1.1-2.5.9 0 1 .7 2.2 1.6 2.5 1.3.5 1.4.9.4 2.1-1.1 1.3-1.6 1.3-4.1-.2-3.1-1.8-4.5-1.3-3.5 1.3.4 1.1 1.4 1.5 3.2 1.1 1.8-.3 2.9.1 3.7 1.4.7 1.1 2.3 1.9 3.7 1.9 2.2.1 2.3.2.7 1.1-.9.5-2.2.7-2.7.4-.6-.3-1.3.1-1.6.9-.3.9-1.2 1.6-2 1.6s-1.4.7-1.4 1.5c0 1.7-3.6 3.9-5 3-1.6-1-5.9.6-5.4 2 .3.7 0 1.6-.5 2-.6.3-.9 1.1-.6 1.6.4.5-.1.9-.9.9C.4 46 .1 48.2.1 59.2 0 66.4.2 72.1.4 71.9c.3-.3.6-4.4.7-9.2.1-4.8.6-8.7 1.1-8.7.5 0 .7 1 .3 2.2-.6 2.2-.6 2.2 1 .4 1-1.3 1.2-2.3.5-3-1.5-1.5-1.2-5.2.4-6.5 1.2-1 1.7-.8 2.7 1.1.7 1.3 1.7 2.6 2.3 3 .8.6.7.8-.1.8-.6 0-1.5-.5-1.8-1-.3-.6-1-1-1.6-1-1.3 0-1.1 2.9.4 4.4.9.9 1.2 3.9 1.1 9.2-.1 7.6-.2 7.9-3 9.1-2.8 1.2-2.8 1.3-.6 1.9 3.2.9 2.7 2.4-.9 2.4-2.4 0-3 .4-2.7 1.7.3 1.2 1.2 1.7 2.7 1.5 1.3-.1 3.8.7 5.7 1.9 1.8 1.1 3.8 1.8 4.3 1.5 1.4-.9 2.5 1.4 1.2 2.7-.7.7-1.7.7-3.3 0-1.3-.6-3.2-.7-4.3-.3-1.9.7-1.9.7 0 1.8 1.8 1.1 1.8 1.1-.7 1.2-1.6 0-2.8-.4-2.8-.8 0-1.4 3.6-4.3 4.3-3.5.4.3.7.1.7-.5 0-.7-.4-1.2-.9-1.2s-1.6-.3-2.5-.6C3.4 82 3 82.4 3 83.9c0 1.2-.5 2.1-1.1 2.1-.6 0-.9-.7-.6-1.5.4-.8.2-1.7-.3-2-.5-.3-.9 1.4-.8 4 0 2.5.4 4.5.9 4.5s.9.7.9 1.5S1.6 94 1 94s-1 4.2-1 10.7c0 10.4.5 13.2 1.3 6.3.2-1.9.7-3.6 1.3-3.8 1.1-.3 1.3 4.7.2 5.4-.4.3-.8 1.4-.8 2.5s-.4 1.7-1 1.4c-.6-.4-1 35.9-1 105.4V328l27.7.2 27.8.3-.3 171.5-.4 171.5-25.6.1c-14.2 0-26.5.1-27.4.2C.1 672 0 680.5 0 836v164h1000V744h-3c-3.9 0-5-2.5-2.1-5.1 1.1-1.1 2.1-2.3 2.1-2.8 0-.4-2.6-1.7-5.7-2.8-3.2-1.1-6.6-2.4-7.5-2.8-1.2-.5-2.1.3-3.4 3l-1.7 3.7-6.4-.4c-5.3-.3-6.3-.2-6.1 1.2.2 1.1 2 1.6 6.8 2l6.5.5v3.5c0 2.9-.3 3.5-2 3.3-4.7-.6-14.7-.6-41.6.1-30.8.8-31.4.8-28.8-4.1 1.2-2.2 1.1-2.7-.6-3.9-1-.8-3.5-1.6-5.4-2-7.2-1.2-8.6-1.9-8.3-4.5.1-1.3.3-7.7.4-14.2.1-10.2-.2-12-1.8-13.9-1.7-2-1.8-2.1-.1-1.5 1.6.6 1.7.1 1.3-5.6-.7-9.5-.6-9.4-1.5-7.3-.6 1.5-1.8 2-5 2.1-4.8.1-6.1 1.5-6 6 .1 1.6-.6 4.3-1.5 6l-1.6 3 .2-3.5c.1-1.9.6-4.1 1.1-4.7.5-.7.7-2.3.4-3.5-.9-3.4.3-4.6 4.7-5 2.2-.2 4.1-.9 4.4-1.5.2-.9-.5-1.1-2.5-.8-1.5.2-4.9.7-7.4 1l-4.6.6.2 5.9c.1 3.3.5 6.3.8 6.7.4.3.7 1.8.7 3.2.1 1.4.7 3.9 1.4 5.6l1.4 3 .7-5.3c.4-2.9 1.1-5 1.5-4.5 1.2 1.3 2.1 13.1 1 13.8-.6.3-.8 1.6-.5 2.8.3 1.2.7 4.4.9 7.2.4 4.4.7 5 2.5 4.8 2.7-.3 2.7-.1-.9 4.9-1.6 2.2-3 4.7-3 5.5 0 .8-.4 1.2-.9.8-1.4-.8-12.1.6-12.1 1.7 0 .5 2.4.8 5.4.7 9.2-.4 8.7-2.5 8.4 36.3-.3 29.2-.1 34 1.2 34.8 2.4 1.6-.7 3.1-3.8 1.9-1.4-.5-2.7-.7-3-.5-.2.3-2-.1-4-.9-2.7-1.2-3.8-1.2-4.9-.3-1.2 1-1.3-3.3-.7-30.8.4-17.5.7-33 .8-34.4.1-2.3-.3-2.5-5.4-3.1-6.7-.7-37.4-.3-49 .7-4.7.3-12.5.8-17.5 1-4.9.2-12 .6-15.8.9-5.2.5-7.1.3-8.2-.9-.8-.8-1.5-1.6-1.5-1.8 0-.2 3.7-.2 8.2-.1 8.5.2 11.8-1 11.8-4.4 0-1.8-1-1.6-2.6.4-1 1.4-2.8 1.8-8.6 1.9-4 0-8 .3-8.9.8-2 .9-7.6-3.6-9-7.1-.5-1.3-2.2-2.8-3.7-3.4-1.6-.5-4.4-1.9-6.3-3-1.9-1-4.8-2.6-6.4-3.3-4.2-2-19.5-3.5-24.7-2.6-2.4.5-9 1.3-14.8 1.9-16.2 1.7-18.3 2.6-22.3 9.2-1.9 3.1-3.7 6.3-4 7.2-.4 1-1.1 1.7-1.7 1.7-1.4 0-.6-2.9 2.6-9.2 1.6-3.1 2-4.9 1.3-5.4-1.5-.9-24 .6-26.2 1.8-2.5 1.3-7.7 8.7-7.7 11 0 1.5.8 1.8 5.9 1.8 3.3 0 6.3-.5 6.6-1 .3-.6 1.6-.8 2.8-.6 1.2.3 3.9.8 6 1.1 2 .3 3.7 1 3.7 1.4 0 .5-2 1.7-4.5 2.8-2.5 1-4.5 2.4-4.5 3.1 0 1-1.1 1.2-4.7.6-2.7-.3-5.4-1.1-6.1-1.6-.7-.6-9.4-1.1-20.5-1.2-10.5 0-18.2 0-16.9.2 2.2.3 2.3.5.7 2.2-3 3.3-1.2 5.1 4.7 4.8 4.8-.3 5.3-.5 5.1-2.5-.3-2.1.2-2.3 5-2.5 2.8-.1 7.2-.2 9.7-.3 2.5-.1 5.9 0 7.6.2 2.9.4 3 .6 2 2.8-.6 1.3-1.5 2-1.9 1.6-1.4-1.4-8.4 6.3-9.8 10.8-1.7 5.8-1.6 5.8-22.9 3.6-6-.6-9.6-2.2-11.4-5l-1.5-2.3 14.2.1c12.7.2 14.2 0 14.5-1.6.3-1.6-.9-1.7-14.1-1.7-7.9 0-14.7-.3-15-.6-.3-.4-.2-1.5.4-2.6.9-1.6 1.7-1.8 4.9-1.3 3.7.6 3.8.6 4.2-2.9.4-3.3.2-3.6-2.2-3.6-2.1 0-6.8-1.9-4.9-2 .4 0 5.3-.9 11-2.1 9.8-2 20.5-2.1 25.1-.4 1.2.5 5.2-5.2 7.6-10.7.2-.5-.8-.8-2.2-.8-1.4 0-3-.8-3.5-1.8-1-1.6-1.2-1.6-4.1.1-1.8.9-3.5 1.7-3.8 1.7-1.2 0-1.4-30-.2-31.5.8-1 .6-1.6-.8-2.7-1.6-1.1-1.9-2.8-2-12.8-.1-6.3-.5-12.9-.8-14.6-.3-1.8-.2-3.4.3-3.7.7-.4.7-13.6 0-21.7-.1-1.4.1-4.5.4-7 .5-3 .3-5.4-.6-7.2l-1.3-2.7 5.7-1.1c3.1-.6 8.2-1.7 11.3-2.5 7.3-1.9 7.5-1.9 8.1.5.3 1.1.1 2-.4 2s-.9-.5-.9-1.1c0-.6-1.4-.9-3.2-.7-1.8.2-3.2.6-3 1 .1.5.2 3.3.2 6.4 0 3.9.3 5.3 1.1 4.8.9-.5 1 .1.5 2-.7 2.9-.5 3 3.8 1.5 2.9-1 3.1-1.4 2.8-5-.3-2.4 0-3.9.7-3.9.6 0 1.1 1.7 1.1 4 0 4.1 1.9 5.5 3.7 2.7 1-1.6 1-12.7 0-12.7-.5 0-.6-.4-.2-.9.3-.5-.3-1.1-1.2-1.3-2.4-.5 4-3.8 7.3-3.8 1.2 0 2.4-.5 2.6-1.1.4-1.2 9.8-1.9 9.8-.7 0 .5-.4.8-1 .8-1.8 0-1.1 1.8 1 2.5 1.1.3 2 1.3 2 2.1s.4 1.3.8 1c.5-.3.9.8.9 2.3 0 1.6.9 4.7 2 6.9 1.3 2.7 1.6 4.2.9 4.5-.7.3-1 3-.8 7.5.4 7.6 1.1 8.6 6 7.6l2.7-.6.4-17.1c.2-9.5.7-17.4 1.2-17.5.5-.2.9-.9.9-1.6 0-.7 1-1.8 2.3-2.3 1.6-.8.1-1-6.3-.7-8.2.4-8.4.3-5.2-1.1 3.1-1.4 14.8-3.9 23.5-5.2 3.5-.5 3.8-.3 5.2 3.1 2 4.7 1.9 5.6-.5 5.6-1.1 0-2 .7-2 1.6 0 .9.5 1.2 1.2.8.6-.4 1.7.1 2.5 1.2 1.3 1.7 1.4 1.2 1.2-4.4-.1-3.4-.8-7-1.5-8-.8-.9-1.4-2-1.4-2.4 0-1.7 7.5-3.7 19.5-5.4 9.2-1.3 12.1-2 10.5-2.6-1.2-.4-2.6-.6-3-.3-.5.3-4.6 1-9.2 1.6-11.6 1.4-24 4.7-25.6 6.7-1.2 1.5-1.3 1.3-1-1.7.3-3.1.7-3.5 4.8-4.7 5.5-1.5 27.9-5.4 31.4-5.4 1.4 0 5.8-1.1 9.8-2.4 11.7-3.8 37-9.3 46.7-10.1 3-.2 5.7-.9 6.1-1.6.4-.6 1.3-.8 2-.4.6.4 1.7 0 2.3-.8.7-.8 4.7-2 9.2-2.6 4.4-.7 11.4-2.1 15.5-3.1 13.4-3.4 41.7-8.5 62.7-11.4 2.5-.4 4.4-.2 4.8.5 1 1.6.5 1.8-8.6 2.9-4.6.6-9.3 1.2-10.4 1.5-1.1.2-5.6.9-10 1.5s-10.6 2-13.8 3c-3.1 1.1-6.9 2-8.5 2-1.5 0-3.4.5-4.2 1-2.4 1.5 4.6 1.2 11-.5 3-.8 7.7-1.5 10.3-1.6 2.6-.1 5-.6 5.3-1.1.3-.4 2.3-.8 4.4-.8 2.1 0 5-.4 6.4-1 1.4-.5 6.1-1.2 10.5-1.5 7.4-.5 8.1-.4 9.1 1.6.8 1.4 1.9 2 3.4 1.7 1.4-.3 2.2.1 2.3 1.1.1.9.5 3 .8 4.7.5 2.1.1 4.1-1.4 6.8-2 3.4-2 3.8-.5 5.4 1.5 1.5 1.7 1.5 2.9-.1.7-.9 1.7-1.7 2.4-1.7.6 0 1.1-.5 1.1-1 0-.6-.4-1-.9-1-.8 0-2.5-8.9-2.6-13.5 0-1.1-.4-2.6-.9-3.4-1.1-1.6 1.4-3.5 2.8-2.1.6.6 3.2 1 5.8 1h4.8v-5.8c0-4.4.5-6.3 2.3-8.5 4-5 12.9-13.7 14.1-13.7 2.3 0 17.2-11.2 26.9-20.3 2.9-2.6 7.4-6.4 10-8.5 2.6-2 6.7-5.3 9.1-7.2 2.3-1.9 6.8-5.3 9.9-7.5l5.6-4 .1-19.2c0-14.4-.3-19.3-1.2-19.6-1-.4-1-.6 0-.6.9-.1 1.2-46.4 1.2-228.1V0H554.7C210.6 0 109.1.3 108.2 1.2c-.8.8-1.2.9-1.2.1S101.8.2 90 .2C75.1.2 73 .4 73 1.8c0 1.4-.2 1.3-1.3-.2C70.7.2 69.2-.1 63 .2l-7.5.3.3 2.8c.3 2.5.1 2.7-1.7 1.8-1.2-.7-1.7-1.8-1.4-3 .4-1.6 0-1.9-2.1-1.7-1.5.2-3.2.8-3.8 1.4-1.3 1.3-.2 3.3 1.5 2.6 2.2-.8 6.5 3.3 6.5 6.1 0 1.4-.6 2.5-1.3 2.5-.6 0-1.1-1-1-2.2.2-2.9-1.3-4.3-4.8-4.6-3.7-.3-4.7-.9-4-2.7.3-1-.1-1.5-1.2-1.5-1.2 0-1.5.5-1 2 .6 1.9.3 2-2.2 1.4-3.8-.9-4.1-1.4-1.6-2 3.3-.9 3.4-2.9.2-3.1-2.1-.2-2.9.3-3.2 2l-.4 2.2-.8-2.3c-1.2-3.6-2.4-2.5-1.4 1.3.6 1.9.7 4 .4 4.5-.8 1.3 1.1 1.3 3.6-.1 2.5-1.3 7.9-.2 7.9 1.7 0 .8.7 1.4 1.5 1.4s1.5-.7 1.5-1.5.6-1.2 1.4-.9c1.7.6 1.6 5.4-.1 5.4-.6 0-1.8.3-2.7.6-1 .4-2-.5-3-3.1-1.4-3.3-1.9-3.7-4.3-3.1-1.6.4-3.6 1.6-4.5 2.7-1.7 1.9-1.7 1.9-3.8-.3l-2.1-2.3 2.1-.9c2.2-1 2.8-2.8.8-2.4-.7.2-1.2-.5-1-1.5C30 2.6 29.4 2 28 2c-1.1 0-2-.5-2-1 0-.6-.4-1-1-1-.5 0-1 .9-1 2zm55.8 2.2c.2.9-.4 1.8-1.3 2.1-1.1.5-1.5 0-1.5-1.9 0-2.8 2.3-2.9 2.8-.2zM64.2 5.6c-.7 1.2-1.1 1.3-1.7.4-.4-.7-.2-1.6.6-2.1 1.8-1.1 2.3-.4 1.1 1.7zM94 4c0 .5-.5 1-1.1 1-.5 0-.7-.5-.4-1 .3-.6.8-1 1.1-1 .2 0 .4.4.4 1zm11 .6c0 .8-.4 1.2-1 .9-.5-.3-1-1-1-1.6 0-.5.5-.9 1-.9.6 0 1 .7 1 1.6zm-6 .9c0 .8-.7 1.5-1.5 1.5-2.6 0-1.8-2 1.3-2.9.1-.1.2.6.2 1.4zM82.5 8c.3.5.2 1-.4 1-.5 0-1.3-.5-1.6-1-.3-.6-.2-1 .4-1 .5 0 1.3.4 1.6 1zM94 8c0 .5-.4 1-1 1-.5 0-1-.5-1-1 0-.6.5-1 1-1 .6 0 1 .4 1 1zM62.5 9c-.3.5-1 1-1.6 1-.5 0-.9-.5-.9-1 0-.6.7-1 1.6-1 .8 0 1.2.4.9 1zm36-.1c.3.5.1 1.2-.5 1.6-.5.3-1-.1-1-.9 0-1.8.6-2.1 1.5-.7zM102 10c0 .5-.4 1-1 1-.5 0-1-.5-1-1 0-.6.5-1 1-1 .6 0 1 .4 1 1zm-43.9 2.3c-1 .9-1.1.8-.5-.6.3-1 .9-1.5 1.2-1.2.3.3 0 1.1-.7 1.8zm18.6-.1c-.3.8-.6.5-.6-.6-.1-1.1.2-1.7.5-1.3.3.3.4 1.2.1 1.9zM40 11.9c0 1.3-2.8 2.2-3.5 1.1-.3-.4.1-1.1.7-1.3 2-.8 2.8-.8 2.8.2zm32.7 1.3c-.3.8-.6.5-.6-.6-.1-1.1.2-1.7.5-1.3.3.3.4 1.2.1 1.9zm29 .2c-.5 1.4-4.7 1.7-4.7.3 0-.6 1.1-1.2 2.5-1.2s2.4.4 2.2.9zM37.8 15c2.3 0 2.5.2 1.1 1.5-1.2 1.3-1.9 1.3-4.2.3-2.8-1.4-3.8-3.4-1.1-2.4.9.3 2.7.6 4.2.6zM31 19c0 3.7.2 4 2.3 3.5 1.8-.5 2.6-.1 3.5 2L38 27l-3-1.5c-2.8-1.5-3-1.5-3 .5 0 1.3-.9 2.2-2.5 2.6-1.4.3-2.5 1.2-2.5 2s-.4 1.4-1 1.4c-2.2 0-.1-6.5 2.7-8.3.8-.5 1.1-2.3.8-4.7-.2-2.2.1-4 .6-4s.9 1.8.9 4zm-3 0c0 1-.4 2.2-1 2.5-.6.4-1-.7-1-2.5s.4-2.9 1-2.5c.6.3 1 1.5 1 2.5zm13.3 2.8c-.5 1.4-.3 1.5.8.4 1.5-1.3 3.9-1.6 3.9-.4 0 .4-1.3 1.3-2.9 1.9-3.2 1.2-4.6-.1-3.5-3.2.8-2.1 2.5-.8 1.7 1.3zm66.2 3.2c-.3.5-1 1-1.6 1-.5 0-.9-.5-.9-1 0-.6.7-1 1.6-1 .8 0 1.2.4.9 1zm-84.6 2.1c-1.4.8-2.9.3-2.9-1.1 0-.4.9-.6 2.1-.3 1.5.4 1.7.8.8 1.4zM132 28c0 .5-.4 1-1 1-.5 0-1-.5-1-1 0-.6.5-1 1-1 .6 0 1 .4 1 1zm-96.2 1.2c-.6 1.8-2.8 2.1-2.8.4 0-.9.7-1.6 1.6-1.6.9 0 1.4.5 1.2 1.2zM46 30.6c0 1.4-4.3 1.1-4.8-.4-.2-.7.6-1.1 2.2-1 1.4.1 2.6.7 2.6 1.4zm5.6 3.2c-1 1-2.9-1.5-2.1-2.8.6-.9 1-.8 1.7.4.6 1 .7 2 .4 2.4zM80 31c0 .5-.2 1-.4 1-.3 0-.8-.5-1.1-1-.3-.6-.1-1 .4-1 .6 0 1.1.4 1.1 1zm-48 2.4c0 1.3.3 3.2.6 4 .5 1.2.2 1.5-1 1-1.1-.4-1.5-1.3-1.1-2.5.5-1.6.1-1.9-2.2-1.9-2.7-.1-2.7-.1-.9-1.5 2.9-2.2 4.6-1.8 4.6.9zm4.5 0c-1.1.8-2.4 1.2-2.9.8-.5-.3-.1-.9 1-1.3 3.1-1.2 3.9-1 1.9.5zM24 34c0 .5-.4 1-1 1-.5 0-1-.5-1-1 0-.6.5-1 1-1 .6 0 1 .4 1 1zm56 1c0 .5-.4 1-1 1-.5 0-1-.5-1-1 0-.6.5-1 1-1 .6 0 1 .4 1 1zm-59.4 2.5c-.5 1.9-.2 2.5 1.1 2.6 1.5 0 1.4.2-.5 1.1-1.5.8-2.1 1.7-1.6 3 .7 2.3-.2 2.3-3.3-.2-1.4-1.1-3.7-2-5.2-2-1.4 0-3.2-.4-3.9-.8-.7-.5 1.5-.6 4.8-.4 4.3.3 6 .1 6-.8 0-.7-.7-1-1.6-.6-1 .4-1.3.2-.8-.7 1.5-2.6 2.7-3.7 4.1-3.7 1.1 0 1.3.7.9 2.5zm5.4-.6c0 1.3-2.8 2.2-3.5 1.1-.3-.4.1-1.1.7-1.3 2-.8 2.8-.8 2.8.2zm10.4 1.6c-1.3 2-1.4 2.8-.4 4 .8.9.9 1.5.2 1.5-1.7 0-2.2-1.6-1.6-4.9.4-1.7 1.3-3.1 2-3.1 1.2 0 1.1.5-.2 2.5zM74 37c0 .5-.4 1-1 1-.5 0-1-.5-1-1 0-.6.5-1 1-1 .6 0 1 .4 1 1zm39 2.5c0 .5-.5.3-1-.5s-1-2-1-2.5c0-.6.5-.3 1 .5s1 1.9 1 2.5zm-59.9 1.2c1.3 1.7 1.3 1.7-.6.3-1.1-.8-2.2-1.6-2.4-1.7-.2-.2 0-.3.6-.3s1.7.8 2.4 1.7zm-23.3-.1c1.2.4 2.2 1.3 2.2 2 0 1.7-.5 1.7-4.7.2-5.5-2-3.5-3.8 2.5-2.2zM43 41c0 .5-.2 1-.4 1-.3 0-.8-.5-1.1-1-.3-.6-.1-1 .4-1 .6 0 1.1.4 1.1 1zm39-.6c0 .2-.7.7-1.6 1-.8.3-1.2.2-.9-.4.6-1 2.5-1.4 2.5-.6zm16 .6c0 .5-.2 1-.4 1-.3 0-.8-.5-1.1-1-.3-.6-.1-1 .4-1 .6 0 1.1.4 1.1 1zm-66 5c.5-.8 1.2-1.1 1.6-.7 1.6 1.5-1.5 2.8-7.6 3.1-3.4.2-5.7 0-5-.4.6-.4 1.2-1.1 1.2-1.6.2-3 1.1-3.3 4.9-1.1 3.4 1.9 4.1 2 4.9.7zm33-2.6c0 .3-.4.8-1 1.1-.5.3-1 .1-1-.4 0-.6.5-1.1 1-1.1.6 0 1 .2 1 .4zm10 .6c0 .5-.4 1-1 1-.5 0-1-.5-1-1 0-.6.5-1 1-1 .6 0 1 .4 1 1zm-58.4 3.8c.6.4.7 1.7.3 3.2-.4 1.4-.7 1.9-.8 1.2-.2-2.1-3-4.4-4.7-3.8-.8.3-1.2.2-.9-.4.7-1.2 4.5-1.3 6.1-.2zM51 49c0 .5-.2 1-.4 1-.3 0-.8-.5-1.1-1-.3-.6-.1-1 .4-1 .6 0 1.1.4 1.1 1zm4 0c0 .5-.4 1-1 1-.5 0-1-.5-1-1 0-.6.5-1 1-1 .6 0 1 .4 1 1zm-41 3c0 .5-.7 1-1.5 1s-1.5-.5-1.5-1c0-.6.7-1 1.5-1s1.5.4 1.5 1zm14 0c0 .5-.4 1-.9 1-.6 0-1.3-.5-1.6-1-.3-.6.1-1 .9-1 .9 0 1.6.4 1.6 1zm5 1.8c0 1.5-.2 1.5-1 .2-1.3-2-1.3-3.3 0-2.5.6.3 1 1.4 1 2.3zm7.4.8c.5 1.4.4 1.5-.9.4-1.7-1.4-1.9-2-.6-2 .5 0 1.2.7 1.5 1.6zm-3.7 1c-.3.3-1.2.4-1.9.1-.8-.3-.5-.6.6-.6 1.1-.1 1.7.2 1.3.5zm-18.3 1c.9.3 1.6 1.1 1.6 1.6 0 .6-.8.7-1.7.3-1-.4-2.3-.8-3-.9-.7-.1-1.6-.5-1.9-.9-.9-.9 2.8-.9 5-.1zm13.6 3c0 .8-.4 1.2-1 .9-.5-.3-1-1-1-1.6 0-.5.5-.9 1-.9.6 0 1 .7 1 1.6zm-16.5 1.3c0 1.9-2.9 3.5-4.9 2.8-.9-.4-1.6-1.5-1.6-2.6 0-1.5.7-1.8 3.3-1.7 1.9.1 3.2.7 3.2 1.5zm9.5.5c0 1.1-1.9 1.5-2.5.6-.3-.5.1-1 .9-1 .9 0 1.6.2 1.6.4zm3.4 1.1c.3.8.1 1.5-.4 1.5-.6 0-1-.7-1-1.5s.2-1.5.4-1.5.6.7 1 1.5zM72 62c0 .5-.5 1-1.1 1-.5 0-.7-.5-.4-1 .3-.6.8-1 1.1-1 .2 0 .4.4.4 1zm-31.3 3.5c-1.5 1.6-2.2 1.1-1.3-1 .3-.9 1-1.3 1.6-1 .6.4.5 1.1-.3 2zM20 65c.5-.8 1.2-1.1 1.7-.7 1.1 1.1-1.8 2.8-3.9 2.3-1.8-.4-2.5 1.4-1.1 2.8.4.4.8 1.3.9 1.9 0 .7.2 2 .2 2.9.3 3.3 2.2 1.8 2.2-1.7 0-1.9.5-3.5 1-3.5.6 0 1.1.4 1.1 1 .1.9.3 1.7.8 3.7.2.5.6-.1 1.1-1.2l.9-2v2c.1 1.1 1 3.4 2 5.1 1.8 3 1.8 3.1.1 2.7-1-.3-2.3-1.4-2.9-2.6-1.1-2.1-1.1-2.1-.8-.2.4 2.3-1.8 4.9-3.3 4-.6-.4-.8-1-.5-1.5.3-.5.1-1.1-.5-1.5-.5-.3-1.1-.1-1.1.4-.3 2.6-.4 3-1.1 3.7-.5.4-.8-.3-.8-1.6 0-1.9-.2-2.1-1.5-1-.9.7-1.8 1-2.2.6-.3-.3-.1-.6.5-.6.7 0 1.2-1.4 1.2-3 0-1.7.5-3 1-3 1.2 0 .1-5.3-1.2-5.8-1.2-.5-1-3 .5-3.5.6-.2 2 .1 3 .7 1.3.8 2 .8 2.7-.4zm-9.2 4.2c.2 1.3-.4 3.1-1.2 3.8-1.8 1.4-2 .7-.6-2 .7-1.3.7-2.1 0-2.5-1.4-.9-1.2-2.7.3-2.3.6.3 1.3 1.6 1.5 3zM25 67.6c0 .8-.4 1.2-1 .9-.5-.3-1-1-1-1.6 0-.5.5-.9 1-.9.6 0 1 .7 1 1.6zm12-.7c0 .5-.9 1.9-2 3.2l-2 2.4 1.7-3.2c1.9-3.4 2.3-3.9 2.3-2.4zm-1.3 7.3c-.3.8-.6.5-.6-.6-.1-1.1.2-1.7.5-1.3.3.3.4 1.2.1 1.9zm-24.6 5.1c-1.8 1.8-2.5-.1-1.1-3l1.4-2.8.4 2.4c.2 1.3-.1 2.8-.7 3.4zM64 78c0 .5-.4 1-1 1-.5 0-1-.5-1-1 0-.6.5-1 1-1 .6 0 1 .4 1 1zm-29 1c0 .5-.2 1-.4 1s-1.2.3-2.2.7c-1.6.6-1.7.5-.4-1 1.7-1.9 3-2.2 3-.7zm-9.7 7.9c-.3.4-.8 0-1-.7-.3-.6-1.4-1.2-2.6-1.2-1.7 0-1.9-.2-.7-.9.8-.6 1.8-.7 2.2-.5.4.3.8-.3.9-1.3 0-1 .4-.5 1 1.1.4 1.7.6 3.2.2 3.5zM44 83c0 .5-.4 1-1 1-.5 0-1-.5-1-1 0-.6.5-1 1-1 .6 0 1 .4 1 1zm-25.5 2c.3.5-.1 1-.9 1-.9 0-1.6-.5-1.6-1 0-.6.4-1 .9-1 .6 0 1.3.4 1.6 1zm22.7 1.8c.3 1.1 0 1.9-.8 1.9s-1.4-.9-1.4-1.9c0-1 .4-1.8.9-1.8s1.1.8 1.3 1.8zm-12.8 3.1c-1 1.1-2.1 1.8-2.6 1.5-1.4-.9-.9-2.4.7-2.4.9 0 1.9-.8 2.2-1.7.4-.9.8-1.2 1-.6.2.6-.4 2.1-1.3 3.2zM49 87.6c0 .2-.7.4-1.5.4s-1.5-.4-1.5-1c0-.5.7-.7 1.5-.4.8.4 1.5.8 1.5 1zm-26.5.4c1.5.6 1.1.7-1.7.7-2.1-.1-3.8-.5-3.8-.9 0-1 2.9-.9 5.5.2zm37.5.6c0 .8-.4 1.2-1 .9-.5-.3-1-1-1-1.6 0-.5.5-.9 1-.9.6 0 1 .7 1 1.6zm-49 2.9c.5.3 1 1.5 1 2.6 0 1 .5 1.9 1.1 1.9.6 0 .1 1.3-1.1 3-1.2 1.6-1.9 3.4-1.5 3.9.3.6-.4.9-1.5.8-2.4-.2-2.4-.2-.7-1.9 2-2.3 3.8-5.8 2.8-5.8-.5 0-1.2-1.1-1.5-2.4-.5-1.9-1.1-2.2-3.2-1.8-1.9.3-2.5.1-2-.7.7-1.1 4.5-.9 6.6.4zm21.3 0c-.3.9-.8 1.4-1 1.1-.3-.3-.2-.9.2-1.5.9-1.6 1.5-1.3.8.4zM73 90.4c0 .3-.4.8-1 1.1-.5.3-1 .1-1-.4 0-.6.5-1.1 1-1.1.6 0 1 .2 1 .4zm-65.4 6c.4 1.7-.1 3.1-1.5 4.5C4 103 4 103 4 101c0-1.1.7-2.3 1.5-2.6.8-.4 1.5-1.1 1.5-1.6 0-.6-.6-.8-1.4-.5-.8.3-1.7-.1-2-.9-.3-.9.1-1.4 1.4-1.4 1.2 0 2.2.9 2.6 2.4zm14.7-1.3c-1.7 1.5-5 1.9-5 .6 0-.8 1.2-1.4 2.9-1.4 1.6 0 2.5.4 2.1.8zM40.5 97c-.3.5-1.3 1-2.1 1s-1.2-.5-.9-1c.3-.6 1.3-1 2.1-1s1.2.4.9 1zM23 101.5c0 2.1-2.6 4.2-3.8 3-.3-.3 0-.5.7-.5s1.1-.8 1-1.8c-.3-3.1.1-4.3 1.1-3.7.6.3 1 1.7 1 3zm-7.3.7c-.3.8-.6.5-.6-.6-.1-1.1.2-1.7.5-1.3.3.3.4 1.2.1 1.9zm.3 2.8c0 .5-.4 1-1 1-.5 0-1-.5-1-1 0-.6.5-1 1-1 .6 0 1 .4 1 1zm-2 3.1c0 1.3-1.8 2-2.5.9-.4-.6-1.6-.8-2.8-.4-1.9.6-2 .5-.9-.8 1.2-1.5 6.2-1.3 6.2.3zm19.7 1.1c-.3.8-.6.5-.6-.6-.1-1.1.2-1.7.5-1.3.3.3.4 1.2.1 1.9zm-15-.6c-.3.3-1.2.4-1.9.1-.8-.3-.5-.6.6-.6 1.1-.1 1.7.2 1.3.5zm-7.2 3.4c-.3.5-1.2.7-2 .3-2.1-.7-1.9-1.3.6-1.3 1.1 0 1.8.4 1.4 1zm-6.4 4.3c-.8.8-1.1.7-1.1-.4 0-2 1.3-3.4 1.8-1.9.3.7-.1 1.7-.7 2.3zm2.6 2.9c-.3.8-.6.5-.6-.6-.1-1.1.2-1.7.5-1.3.3.3.4 1.2.1 1.9zm22 1c-.3.8-.6.5-.6-.6-.1-1.1.2-1.7.5-1.3.3.3.4 1.2.1 1.9zm3.1 4.3c-.3.3-.9-.2-1.2-1.2-.6-1.4-.5-1.5.5-.6.7.7 1 1.5.7 1.8zM46 124c0 .5-.2 1-.4 1-.3 0-.8-.5-1.1-1-.3-.6-.1-1 .4-1 .6 0 1.1.4 1.1 1zm-43 4c0 .5-.4 1-1 1-.5 0-1-.5-1-1 0-.6.5-1 1-1 .6 0 1 .4 1 1zm4.5 2c.3.5.1 1-.4 1-.6 0-1.1-.5-1.1-1 0-.6.2-1 .4-1 .3 0 .8.4 1.1 1zm12.2 1.6c-.3.3-1.2.4-1.9.1-.8-.3-.5-.6.6-.6 1.1-.1 1.7.2 1.3.5zm-6.7.8c0 .9-3 1.4-3.5.6-.4-.6.3-1 1.4-1 1.2 0 2.1.2 2.1.4zm957.7 299.2c.3.9.1 2.4-.5 3.4-.8 1.3-.7 2.1.1 2.9.8.8.5 1.1-1 1.1-1.2 0-2.5.5-2.9 1.2-.5.7-.2.9.9.5.8-.3 3.2-.9 5.1-1.3l3.6-.6.1 9.3c.3 17.9.3 17.9-2.1 19.9-1.2 1-4.7 2.4-7.8 3-3.2.6-6.5 1.4-7.4 1.6-2.1.6-2.2-.8-1.9-17.6.2-14.7.7-16.6 4.3-15.7 1.1.3 3.1.1 4.4-.5 1.9-.9 2.4-1.9 2.4-5 0-3.9 1.6-5.1 2.7-2.2zm16.1 2.7c.2 1.9-.1 2.7-1.2 2.7-1.1 0-1.6-1-1.6-3.1 0-3.8 2.4-3.5 2.8.4zM998 448c0 .5-.9 1-1.9 1-1.1 0-2.7.7-3.5 1.6-1.7 1.6-3.6 1.1-3.6-1 0-.8 1.3-1.3 3.1-1.4 1.7 0 3.4-.3 3.7-.6.9-.9 2.2-.7 2.2.4zm-123 17c0 1.1.7 2 1.5 2 3.3 0 1.2 1.9-4.7 4.1-3.5 1.3-6.6 2.5-7 2.7-.5.2-.8-.1-.8-.8 0-.6 1.9-2 4.3-3 2.3-1 4.3-2.4 4.3-3 .1-.5.2-1.7.3-2.5.2-2.3 2.1-1.8 2.1.5zm12.8 1.9c.3 1.6-.1 2.2-1 1.9-.7-.3-1.5-1.5-1.6-2.7-.3-1.6.1-2.2 1-1.9.7.3 1.5 1.5 1.6 2.7zm17.8 4.4c1.1 1.1-1.3 1.3-5.4.5-2.3-.5-4-1.3-3.7-1.7.5-.8 8.1.2 9.1 1.2zm-26.6 2.2c0 1.5.6 2.5 1.5 2.5s1.2.6.9 1.5c-.4.8-1 1.2-1.5.9-.5-.3-.9.2-.9 1 0 .9.5 1.6 1 1.6.6 0 1 1.5.9 3.2 0 2.8-.2 3-.9 1.3-.7-1.6-.9-1.7-.9-.3-.1.9.9 2.4 2.2 3.4 1.4 1 1.6 1.4.5 1.1-1.2-.4-1.5-.2-1.1.9.3.7 0 1.4-.7 1.4-.6 0-.9.4-.6.8.9 1.5-4.7 5.8-9.2 7.1-2.4.7-4.6 1-4.8.8-.6-.6-2-9.8-1.8-11.5.1-.6.2-4 .3-7.5l.1-6.2 6.8-2.1c8.6-2.8 8.2-2.8 8.2.1zm7.6 2.2c-.6.6-3.6-.9-3.6-1.8 0-.5.9-.4 2 .3 1 .7 1.8 1.4 1.6 1.5zm-761.3 1c3.1.3 5.7.9 5.7 1.4 0 1.2-10.5 2.2-16.7 1.5-7.1-.9-9.3-1.5-9.3-2.6 0-1.9 5.2-2 20.3-.3zm774.4.9c-.3.3-1.2.4-1.9.1-.8-.3-.5-.6.6-.6 1.1-.1 1.7.2 1.3.5zm-4.2 10.4c-.3.5-1.1 1-1.6 1-.6 0-.7-.5-.4-1 .3-.6 1.1-1 1.6-1 .6 0 .7.4.4 1zM788 512.6c0 1.3-.4 2.4-1 2.4-.5 0-1-1.4-1-3.1 0-1.7.4-2.8 1-2.4.6.3 1 1.7 1 3.1zm10.4-.3c-.9 2.5-2.2 2.1-1.9-.6.3-3.2.4-3.2 1.5-2.1.6.6.8 1.8.4 2.7zm-5.4 13.4v8.6l-4.7 4.3c-2.5 2.4-5 4.1-5.5 3.8-.4-.3-.8-4.7-.8-9.7.1-8.9 1.2-12.7 3.7-12.7.6 0 1.6-.7 2.3-1.5.7-.8 2.1-1.5 3.1-1.5 1.7 0 1.9.9 1.9 8.7zm-67.2 5.7c.3 2 0 2.7-1 2.4-.7-.3-1.4-1.7-1.6-3.2-.3-2 0-2.7 1-2.4.7.3 1.4 1.7 1.6 3.2zm11.2-.3c0 1.7-.4 2.8-1 2.4-.5-.3-1-1.7-1-3.1 0-1.3.5-2.4 1-2.4.6 0 1 1.4 1 3.1zm205.8 5.2c-.7.7-2.1 1.6-3.1 2-1 .4-1.5 1.1-1.2 1.7.3.5 0 1-.7 1-1.7 0-9.9 6.6-9.2 7.3.4.3-1.2 2.4-3.5 4.6-2.2 2.2-4.3 3.6-4.5 3.2-.3-.4.6-1.6 2-2.6 2.3-1.7 5.1-5.5 4-5.5-1.1 0-8.6 8.4-8.6 9.7 0 .7.5 2.2 1.2 3.2 1.9 3.2.3 5.1-4.4 5.2-2.4 0-5.4.2-6.8.3-4.4.5-5.3-.4-3-2.9 1.1-1.2 1.8-2.4 1.5-2.7-.6-.6 6.7-5.9 9.8-7.1.9-.3 1.7-1.1 1.7-1.7 0-.5.5-1 1.1-1 .6 0 2.9-1.5 5.2-3.4 9.2-7.4 23.3-16.1 18.5-11.3zm-220.1.3c-.3.3-1.2.4-1.9.1-.8-.3-.5-.6.6-.6 1.1-.1 1.7.2 1.3.5zm6.3 12.8c.6 11.1-.2 12.6-6.7 12.6H719v-20.6l3.3-1.1c6-2 6.2-1.7 6.7 9.1zm-58-1.4c0 3.1-1.6 4.1-2.6 1.5-.8-1.9.2-4.5 1.6-4.5.5 0 1 1.3 1 3zm-11 1c0 2-.5 3-1.5 3s-1.5-1-1.5-3 .5-3 1.5-3 1.5 1 1.5 3zm.7 6.6c-.3.3-1.2.4-1.9.1-.8-.3-.5-.6.6-.6 1.1-.1 1.7.2 1.3.5zm15.3.6l6.5.3-.5 5.4-.5 5.4-5 1.2c-2.7.7-6.1 1.5-7.5 1.8-1.4.4-4.1 2-6 3.7-1.8 1.6-4.4 3-5.7 3-2.2 0-2.3-.4-2.5-7-.1-3.9-.2-8-.2-9.2-.1-1.8.6-2.4 3.4-2.9 1.9-.3 4.6-1.1 6-1.7 1.4-.6 3.2-.9 4-.6.8.2 4.4.5 8 .6zm-48.7 4.1c.3.8.2 1.9-.3 2.6-.5.9-.9.4-1.2-1.3-.5-2.7.6-3.6 1.5-1.3zm-9.3 2.6c0 1.1-.4 2.3-1 2.6-.5.3-1 .2-1-.4 0-.5-.3-1.6-.6-2.5-.4-1.1-.1-1.6 1-1.6.9 0 1.6.8 1.6 1.9zm11 6.6c9.7.7 10 .8 10.4 3 1 5.5.6 6.1-4.6 7.3-2.7.7-5.6 1.2-6.4 1.2-.8 0-2.9 1.3-4.7 3-2.4 2.2-4.2 3-6.9 3H613v-8.8c0-4.9.3-9.2.8-9.6.4-.4 2.5-.5 4.7-.1 2.2.3 6.9.8 10.5 1zm-84 15.1c0 .8-.5 1.2-1 .9-.6-.4-.8-1.1-.5-1.6.9-1.4 1.5-1.1 1.5.7zm-8.7.9c.4.8.2 1.7-.3 2-.6.4-1-.3-1-1.4 0-2.5.6-2.7 1.3-.6zm6.7 5.6c0 .6.7.8 1.6.5 1.9-.7 5.4.1 5.4 1.3 0 .4-1.5.7-3.2.7l-3.3-.1v7l-.1 7-4.1.9c-6.8 1.4-7.3.8-7.3-8.8v-8.5l2.8-.4c5.4-.8 8.2-.7 8.2.4zm-31.5 7.9c.3.5 3.4 1 6.7 1 6.2 0 6.2 0 4.1 1.9-2.5 2.3-5.9 3.1-5.5 1.3.1-.6-.3-1.2-.9-1.2-.6 0-.9.7-.6 1.5.4.8.2 1.7-.3 2-1.6 1-1.2 2.3.8 2.8 1.2.3.8.6-1.3 1.2-1.6.4-4.3 2.1-5.9 3.6-1.7 1.8-3.9 2.9-5.5 2.9-2.7 0-2.7-.1-3-7.8-.2-7.2-.1-7.8 2.1-8.8 3-1.5 8.5-1.7 9.3-.4zm11.5 7.5c0 .8-.4 1.5-.9 1.5-1.3 0-2.2-1.6-1.4-2.4 1.1-1.1 2.3-.6 2.3.9zm-37.2 12.1c.6.4-10.4 10.4-11.5 10.4-.9 0-1.3-1.8-1.3-5.8 0-3.2.2-6.1.5-6.4.4-.4 11.5 1.1 12.3 1.8zm195 .8c-1 .7-3.7 1.3-6 1.4-2.4.1-6.8.9-9.8 1.7-3 .8-9.8 2.4-15 3.5-5.2 1.2-12.2 2.7-15.5 3.5-3.3.8-8.2 1.4-11 1.3-2.7 0-6.6.2-8.5.6-2.4.4-2.9.3-1.5-.3 3.5-1.5 20.1-5.1 23.6-5.1 1.9 0 5.9-.6 8.9-1.4 15.8-3.9 23.1-5.2 35.5-6.4.6-.1.2.5-.7 1.2zm-216.1 2.9c0 .1.4 2.3.8 4.8l.7 4.6-3.6.7c-2 .4-4.4 1.8-5.5 3.1-1.4 1.8-2.9 2.5-5.4 2.5h-3.5l-.4-5.3c-.5-8.4-.1-9.4 4-10.5 2.9-.8 12-.7 12.9.1zm223.1-.6c-1 .2-2.6.2-3.5 0-1-.3-.2-.5 1.7-.5s2.7.2 1.8.5zm-77.2 11.7c-.5 2.2-.1 2.6 3.7 3.9 3.2 1.1 4.1 1.9 3.9 3.2-.3 1.6-.1 1.7 1.2.6s1.6-1.1 1.6.1c0 .8-.2 1.7-.5 2-.3.3-.8 8.5-1 18.2-.2 9.7-.7 18.1-1.1 18.8-.5.7-.3.8.6.3 1-.6 1.2.2.6 4.1-.3 2.7-1.1 5-1.6 5.2-.6.2-1 .8-1 1.3 0 .6.5.7 1 .4.6-.4 1 1.8 1.1 5.7 0 3.5.3 9.3.5 12.9.4 5.4.2 6.8-1.1 7.2-.8.4-1.5 1.7-1.5 2.9 0 1.9-.2 2-1 .8-1.4-2.2-1.2-5 .4-5 .9 0 1.5-1.4 1.7-3.8.5-5.1 0-9.2-1.2-9.2-.6 0-.7.4-.4 1 .3.5.1 1-.4 1-.6 0-1.1-.7-1.1-1.5s.7-1.5 1.5-1.5c2.2 0 1.8-3.7-.5-4.3-1.3-.3-2 0-2 .9 0 .8-.9 2.3-2 3.4-2.6 2.6-2.5 3.6.3 4.5l2.2.7-2.3.6c-2.7.8-2.8 1.9-.3 4.8 1.3 1.5 1.5 2.4.7 3.8-.9 1.3-.7 2 .6 3 1 .7 1.5 1.6 1.1 1.9-.3.4.2 1.6 1.2 2.7 1.7 1.9 1.7 1.9-1.4.7-1.9-.7-2.9-1.7-2.7-2.4.9-2.1-2.2-1.5-3.4.7-.6 1.1-.7 1.9-.2 1.8 1.1-.4 8.2 4.5 8.2 5.6 0 .5-.6.3-1.4-.3-1.1-.9-1.6-.9-2.2 0-.4.8.4 2.1 2.2 3.5l2.9 2.4.8-2.2c.4-1.2.3-2.6-.3-3.3-.8-.9-.6-1.4.4-1.8 1.1-.4 1.5.6 1.8 4.1.3 2.6.1 5.7-.3 6.9-.5 1.3-.4 2.5.1 2.8.6.4 1 1.2 1 2 0 .9-2.4 1.7-7.2 2.5-4 .6-8.4 1.9-9.8 2.9-1.4.9-4.4 2.3-6.7 2.9-2.3.7-4.9 1.9-5.7 2.7-.8.8-2.2 1.2-3.1.9-1.1-.5-1.8 0-2.2 1.4-.7 2.7-3.4 3.3-12.7 2.5-5.9-.4-7.7-.3-7.2.5.4.7 2.9 1.2 5.7 1.2 9.4 0 17 4 9.1 4.8-1.8.2-3 .8-2.7 1.3.4.5-.1.9-.9.9s-1.7-.4-2-.9c-.3-.5-1.9-.7-3.5-.5-2.3.3-3.3-.3-4.7-2.4-2.9-4.5-4.3-5.4-7.7-5-1.7.2-3.2-.2-3.2-.7-.3-4.8-5.5-9-13-10.4-8.6-1.6-10.3-2.7-10.9-6.3-.3-1.8-.8-8.9-1.1-15.8-.3-6.8-1-12.7-1.6-13-.5-.4-2.4-.4-4.2-.1-1.7.3-2.5.6-1.5.8 1.3.4 1.7 2.4 2.2 13.1.4 7 .9 13.7 1.2 15 .4 2.2.2 2.3-3.3 1.6-2.1-.3-4.2-1-4.6-1.4-1.1-1-2.6-39.3-2.7-66.2v-19.6l3-.7c1.7-.4 4.5-.9 6.3-1.1 1.7-.2 5.2-.7 7.6-1 3.8-.6 4.3-.4 3.8 1-.5 1.2-.1 1.6 1.6 1.6 2 0 2.2.4 1.9 5.3-.3 4.7-.1 5.3 1.7 5.4 1.2.1 2.1-.2 2.1-.8 0-.5.5-.9 1-.9.6 0 1 .7 1 1.5s.4 1.5.8 1.5c.5 0 .7-3.6.6-8.1l-.2-8.1 3.5-1.5c2-.8 5.6-1.6 8.2-1.9l4.6-.5-3.2 1.5c-1.9.8-3.3 2.3-3.3 3.2 0 1.6.2 1.6 2-.1 1.9-1.8 2-1.7 2.1.6.1 1.3 0 4.1-.1 6.1-.1 2.9.2 3.8 1.4 3.8.9 0 1.6-.8 1.7-1.8.3-5.2.9-9.5 1.3-9.9 1.4-1.4 2.2 1.1 1.6 5-.6 4.1-.5 4.3 1.6 3.9 1.9-.3 2.3-1.1 2.6-5.8l.3-5.4-3.5-.1c-3.4 0-3.4-.1-1-1.1 1.4-.5 5-1.2 7.9-1.4 4.3-.3 5.2-.1 4.3.8-.7.7-1.2 2.1-1.2 3.2 0 2 0 2 1.5 0 1.3-1.8 1.4-1.6 1.5 2.4 0 5.6 1.5 8.2 4.5 8.2 2.3 0 2.3-.2 2.2-7.5-.1-5.9-.5-7.5-1.7-7.6-.8-.1 0-.6 1.8-1.2 3.8-1.2 4-1.1 5.7 4 1 2.7 1.5 3.3 2 2.2.3-.8.1-2.8-.4-4.2-1-2.6-.9-2.7 2.7-2.7 6.4 0 8.2-.9 8.2-4.1 0-1.5-.5-3.1-1-3.4-.7-.4-.7-1.3 0-2.6.6-1.1 1.5-1.7 2.1-1.4.5.4.9-.1.9-.9 0-.9.5-1.6 1.1-1.6.7 0 .9.9.5 2.4zM428.5 635c1.7 1.4 1.2 6.2-.7 6.9-.9.3-2.6 1.8-3.8 3.3-1.7 2.2-3 2.8-6 2.8-4.3 0-5-1.2-5-9.2 0-3.6.4-4.8 1.8-5.2 2.5-.7 12.4.3 13.7 1.4zm195.9.2c-.3.4-.9.8-1.5.8-.5 0-.9-.4-.9-.8 0-.5.7-.9 1.5-.9s1.2.4.9.9zm-219.9 5.2c0 3.2-.4 4-2.5 4.9-1.4.6-3.7 2.4-5.2 4-2.3 2.3-3.5 2.8-6.5 2.5l-3.8-.3-.3-6.6c-.3-6-.1-6.6 2-7.6 1.3-.6 5.5-1 9.3-.9l7 .1v3.9zm220.7 6.3c.2 5.4 0 11.1-.3 12.8-.3 1.6-.7-2.3-.8-8.9 0-6.5-.4-12.2-.7-12.7-.3-.5-.1-.9.5-.9.5 0 1.1 4.2 1.3 9.7zm-26.2-7.2c0 1.8-3.1 3.5-6.4 3.5-1.4 0-4.5.4-6.8 1-6.7 1.4-17.4 3.2-21.5 3.5-2.1.1-8.5 1.1-14.3 2.3-5.8 1.1-15.4 2.6-21.5 3.2-6.1.7-11.7 1.9-12.6 2.6-2 1.8-3.9 1.8-3.9-.1 0-.9 2.5-2.2 6.8-3.5 7.6-2.4 31.1-6.6 41.7-7.5 3.9-.3 11.1-1.4 16-2.5 20.3-4.3 22.5-4.5 22.5-2.5zm6 1.5c0 .5-.5 1-1.1 1-.5 0-.7-.5-.4-1 .3-.6.8-1 1.1-1 .2 0 .4.4.4 1zm-235.5 10.2c-.3 3.7-4.3 7.7-5.6 5.6-1.3-1.9-1.1-6.2.3-7.6.7-.7 2.2-1.2 3.4-1.2 1.8 0 2.1.5 1.9 3.2zm-17.7 2.4c2.2.6 1 4.9-1.4 5.2-1.2.2-3.1 1.3-4.3 2.6-1.5 1.6-2.9 2.2-4.6 1.8-2.2-.4-2.5-1-2.5-4.8 0-3 .5-4.6 1.8-5.3 1.5-.9 7.4-.6 11 .5zM547 657c0 .5-.4 1-1 1-.5 0-1-.5-1-1 0-.6.5-1 1-1 .6 0 1 .4 1 1zm-254 5.5c0 2.9-.4 3.5-2 3.5-1.1 0-2.3.7-2.6 1.5-.4.9-1.9 1.5-3.5 1.5-2.8 0-2.9-.2-2.9-5v-5h11v3.5zm-13.4.5c.1 1.6-.3 3-.8 3s-1.9 1.1-3.1 2.4c-1.3 1.3-3.1 2.6-4.2 2.8-1.8.3-2-.4-2.3-4.9-.3-5.7 0-6 6.8-6.2 3.2-.1 3.5.1 3.6 2.9zm267.4-.9c0 .5-.4.9-1 .9-.5 0-1-.7-1-1.6 0-.8.5-1.2 1-.9.6.3 1 1 1 1.6zm-72.3 3.5c-.3.3-1.2.4-1.9.1-.8-.3-.5-.6.6-.6 1.1-.1 1.7.2 1.3.5zm-10.2 1.4c-.3.5-2.8 1-5.5 1s-6 .4-7.3.9c-1.3.5-5.3 1.2-8.8 1.6-3.5.3-7.1.8-7.9 1-.8.2-4.4.6-8 .9l-6.5.6 5.3-1.5c2.9-.8 9.6-1.9 15-2.4 5.3-.5 10.8-1.4 12.2-2 3.3-1.3 12.3-1.4 11.5-.1zm-202.7 2.2c-.5 1.4-5.6 5.4-6.1 4.7-.2-.2-.7-1.6-1.1-3.2-.6-2.6-.5-2.7 3.5-2.7 2.7 0 3.9.4 3.7 1.2zm44.6 3.9l7.7 5.1-10.3 7c-14.1 9.7-14.7 10.2-14.8 11.1 0 .5.8.6 1.8.3 3.4-1.1 29.2-1.7 29.2-.7 0 .5-.6 1.2-1.2 1.4-.8.3-.6.6.5.6 1.9.1 2.2 1.4.8 4-.6 1-.6 2.3-.1 3.1 1.4 2.2 4.3-.8 3.5-3.7-.4-1.6-.1-2.3 1-2.3.8 0 1.5-.5 1.5-1 0-.6-1.2-1-2.7-1-3.2 0-2-1.6 1.7-2.3 1.8-.3 1.4-.5-1.3-.6-2.1 0-3.6-.5-3.3-1 .3-.4 1.7-.6 3.1-.3 1.8.3 2.5 0 2.5-1 0-1.1 1.5-1.7 4.8-2.1 2.6-.4 5.8-.9 7.2-1.2 1.4-.3 7.5-1 13.5-1.5 6.1-.5 12.7-1.3 14.8-1.6l3.7-.6v4.1c0 2.3-.4 4.1-.9 4.1s-.3 1.7.4 3.8c.8 2.1 1.6 8.5 1.9 14.3.3 5.7.9 15.4 1.2 21.6l.6 11.2-2.6 1.2c-3.3 1.5-3.3 2.9 0 2.9h2.5l-.2 8.5-.3 8.5h-2.9c-2.1 0-4.1-1.2-6.9-4-2.2-2.2-4.6-4-5.2-4-.6 0-1.8-.9-2.6-2-1.6-2.3-3.5-2.7-2.7-.6.4 1-.7 1.4-4.6 1.4-2.9.1-6.5.2-8.2.4l-3 .3v-8c0-4.4.4-10.4.7-13.2.7-5.4-.2-7.4-2.6-5.4-.9.8-1 2.9-.4 8.8 1.2 10.6.7 19.9-1 19.5-.7-.1-2.6.5-4.3 1.3-1.6.9-3.4 1.3-3.9 1-.5-.3-1.1-.1-1.5.5-.4.6-1.2.7-1.8.3-1.2-.7-3.5-1.1-9.2-1.4-1.6-.1-3.6-.6-4.2-1.2-.9-.6-1.3-.6-1.3.1 0 1.4-2.4 2.2-4.7 1.6-1.8-.5-1.9-1.4-1.5-13.5.4-12.5.4-12.9-1.6-12.9-2.8 0-3.2 1.7-3.4 14.8-.2 7.9-.6 11.3-1.5 11.6-.7.3-1.5.1-1.8-.4-.4-.6-2.4-1-4.5-1-2.9 0-3.9-.4-4.2-1.7-.3-1.6-.6-1.5-2.6.5-2.5 2.5-3.2 2.7-3.2.9 0-.9-1.4-1.3-4-1.2-2.2 0-4 .3-4 .7 0 .5-.4.8-1 .8-.5 0-1-.9-1-1.9 0-1.1-.4-2.2-.9-2.5-1.2-.8-2.2 2-1.4 4 .5 1.4.3 1.5-1.7.4s-2.5-1-3.7.6c-1.2 1.7-1.3 1.7-1.3-.4 0-3-1.8-2.8-2.6.2-.6 2.5-2.8 2.6-4.9 0-.5-.6-2-1.4-3.2-1.7-1.8-.4-2.3-.1-2.3 1.4 0 1-.7 1.9-1.5 1.9-1.2 0-1.3-.4-.6-1.9.6-1 .7-2.1.4-2.5-1.2-1.2-5.4-.6-6 1-.4 1.1-1.3 1.3-3.4.9-2.4-.6-2.9-.3-2.9 1.3 0 1.5-.5 1.8-2.5 1.4-1.4-.2-2.8-.8-3.1-1.3-.9-1.5-4.4-1-4.4.6 0 2.1-4 1.9-5.6-.3-1.2-1.6-1.3-1.6-1.4 0 0 2.1-3.4 3.2-5.7 1.9-1-.6-1.4-1.1-.9-1.1.5 0 .3-.7-.4-1.5s-1.6-1.2-2.1-.9c-.5.3-.9 0-.9-.5 0-.6-.4-1.1-1-1.1-.5 0-1 .9-1 2s-1.2 2.6-3 3.5c-3.7 1.9-5 1.9-5 0 0-.8-.3-1.5-.7-1.6-.5 0-3.3-.2-6.4-.3-3.1-.2-6.1-.6-6.7-1-.8-.5-1.2-4-1.2-10.1 0-9.2 0-9.3 2.3-8.7 1.8.5 1.9.7.5 1-2.6.5-2.2 2.2.5 2.2 2.4 0 7.2 2.9 5 3-.7 0-1.3.7-1.3 1.5 0 1.6.4 1.8 3.7.9 2.4-.7 3.6-3.7 2-5.3-.8-.8-.8-1.1 0-1.1.7 0 1.4.4 1.7.9.8 1.2 6.3 1.9 7.8 1 .7-.4 1.6-.3 2 .4.5.9 1 .9 1.9 0 .8-.8.9-2.4.3-5-.4-2.1-.8-4.4-.7-5.2.1-1-.2-1-1-.2-.7.7-1.2 1.7-1.3 2.4 0 .7-.2 2.2-.2 3.4-.1 1.3-.6 2.3-1.2 2.3s-1-4-1-10c0-8.5.2-9.9 1.5-9.3.9.3 1.5.2 1.4-.3-.1-.5 0-1.6.4-2.4.3-.8.7-3.8 1-6.7.3-4.1.1-5-1-4.6-.8.3-1.7 1.8-2 3.4-.3 1.6-.9 2.9-1.4 2.9-1 0-.1-7.1 1-8.3.8-.8 7.3-1 17.1-.4 4.4.2 4.5.3 4.2 3.2-.3 3.2.9 2 2.2-2 .5-1.8.1-2.1-2.6-2.3-3.3-.3-4.5-.8-3.6-1.7.8-.8 21.5-.8 22.9 0 .6.4 1.5.2 1.9-.5.6-.9 2.7-1.3 6.5-1.1 6.6.2 9.5-.5 9.5-2.5 0-1.6-1.6-1.9-2.5-.4-.3.5-1.1 1-1.7 1-1.5 0 1.8-3.6 6.8-7.4 2.2-1.7 8.5-6.5 13.9-10.6 10.9-8.2 20.6-15 21.7-15 .3 0 4.1 2.3 8.2 5.1zm175.6 1.6c.2 3.2.3 6.9.3 8.3 0 1.4-.1 13.8-.2 27.7-.1 13.9-.5 25.4-1 25.7-.4.3-.9-1.8-1-4.7-.6-13.3-.3-12.2-3.7-12.5l-3.1-.3.4 10.4c.4 10.3.4 10.3-2.2 11.5-4.2 1.9-5.3 1.5-5.7-2.1-.2-2.6-.8-3.3-2.9-3.5-2.4-.3-2.7.1-3.1 3.5-.6 4.4.6 7.3 3 7.3 1.2.1.1 1.6-3.4 4.8-2.8 2.6-6.1 6.4-7.3 8.4-2.4 4-2.6 4.1-8.3 3.2-2.6-.5-3.9-1.3-4.4-2.8-1.8-5.8-7.3-7.4-11.5-3.2-2.3 2.2-3.1 2.3-17.4 2.5-8.2.1-16.9.4-19.3.7-3.2.5-5.3.2-8-1.2-2-1.1-3.8-1.9-3.9-1.9-.1 0-.4-1.2-.8-2.8-.7-2.5-.5-2.7 2.4-2.7s3-.2 2.4-3.3c-.7-4-1-4.4-2.5-2.9-.7.7-1.6 1.2-2 1.2-1.1 0-1-4.7.1-5.4.5-.4.5-2.2 0-4.3-.5-2.3-.4-4.2.1-4.7.6-.6 1-1.6 1-2.4 0-1.1-.3-1.2-1.4-.3-1.9 1.6-2.7-3-2.5-14.6.1-5-.1-9.5-.5-10.2-.4-.6-.4-1.6 0-2.3 1.3-2 1.1-9.8-.2-9.8-1.5 0-1.5-5.3 0-6.2 2.2-1.5 5.8-.8 6.3 1.1.6 2.3 4 3.4 4.7 1.6.2-.7-.4-1.5-1.5-1.8-1.9-.5-1.9-.6-.2-2.6 1.4-1.7 2.9-2.1 8-2.1 3.5 0 6.3-.4 6.3-.9 0-.8-6.7-.6-13.2.3-1.6.2-2.8.1-2.8-.4 0-1.1 3.5-1.6 32.7-4.5 2.3-.2 4.5 0 4.8.6.4.5-.9.9-2.7 1l-3.3.1 3.9.9c4.2 1 7.4-.4 4.8-2-1-.6-1-1 .2-2 2.3-1.9 3.6-.4 3.6 4 0 3.5.3 3.9 2.5 3.9s2.5-.4 2.5-3.8.4-3.9 3.3-5c1.8-.7 3.6-1.2 4-1.2.4 0 .7 5.8.7 12.8v12.9H445.7v-7.1c.1-3.9-.3-7.7-.9-8.4-.7-.8-.7-1.2.1-1.2.7 0 1.1-2 1.1-5 0-4.8.1-5 2.8-5 6.3 0 7.1.8 7.4 6.9.3 4.8.6 5.6 2.4 5.9 2.7.4 4.4-3.7 3.6-8.7-.6-4.2.7-5.1 7.3-5.1h5l.2 3.7c.1 2.1.2 6.7.2 10.2.1 3.5.6 7 1.2 7.7.8 1 .9 1.4 0 1.4-.6 0-1.1.4-1.1 1 0 .5 1.1 1 2.5 1 2.5 0 3.3-1.4 1.5-2.5-.7-.4-.7-1.2 0-2.5.5-1 .9-6.3.7-11.9-.1-6.8.2-10.1.9-10.1.6 0 1.2 2.4 1.4 5.7zM250.3 671c3.7 0 3.4 1.9-.7 5.2-5 4-7.2 3.7-7.9-.9-.7-4.1.5-5.6 3.8-4.8 1.1.2 3.2.5 4.8.5zm62.7 3c1.3.8 1.3 1-.2 1-.9 0-2-.5-2.3-1-.8-1.3.5-1.3 2.5 0zm-102 1c0 .5-.5 1-1.1 1-.5 0-.7-.5-.4-1 .3-.6.8-1 1.1-1 .2 0 .4.4.4 1zm-20 5.2c0 1.9-1.8 4.3-2.5 3.6-.4-.3-1.6.3-2.7 1.4-1.2 1.2-2.8 1.8-3.9 1.5-1-.3-2.2-.1-2.5.4-.9 1.5-5.1 1-5.8-.7-.3-.9-.6-2.9-.6-4.5V679h9c6.5 0 9 .3 9 1.2zm21 2.8c0 .5-.2 1-.4 1-.3 0-.8-.5-1.1-1-.3-.6-.1-1 .4-1 .6 0 1.1.4 1.1 1zm-46.7 1.9c2.8.1 1.9 2.5-1.7 4.5-4.1 2.2-6.6 1.6-6.6-1.7 0-3.1.6-3.6 3.8-3.2 1.5.2 3.5.4 4.5.4zm-19.3 1.3c0 1.3-6 4.9-7.8 4.6-1.6-.3-2.4-3.8-1-4.8 1-.8 8.8-.6 8.8.2zm51.4 1.7c1.6 1.8 1.2 2.2-10.4 11.5-13.2 10.5-16.4 11.8-16.8 6.4-.3-3.7 2.9-6.9 12.8-12.5 6.4-3.6 8.2-5.1 7.5-6.3-1-1.6 5.4-.8 6.9.9zM131 689c0 1.1-.6 2-1.4 2-.7 0-1.9.7-2.6 1.5-.7.8-2.1 1.5-3.1 1.5-1.4 0-1.9-.7-1.9-2.8 0-3.7.6-4.2 5.2-4.2 3.1 0 3.8.3 3.8 2zm12.4 8.3c-3.6 2.9-7.6 5.9-8.8 6.7-4.7 3.3-10.2 7.6-11.2 8.9-.6.8-1.5 1.2-2.1 1-1.6-.6 10.6-11.1 21.7-18.8 7.9-5.5 8.3-3.9.4 2.2zM628 694c0 1.1-.6 2-1.4 2-1.8 0-2.9-1.6-2.1-3 1.1-1.8 3.5-1.1 3.5 1zm-460.6 37.5c.3 16.7.2 25.5-.4 24.5-.5-.8-1-2.3-1-3.3 0-.9-.8-1.7-1.7-1.7-1 0-2.7-.7-3.7-1.5-1.1-.8-2.8-1.3-3.8-.9-1 .3-1.8.1-1.8-.5s.7-1.1 1.5-1.1c2 0 2-6.9 0-9.6-1.3-1.7-1.4-1.5-1.5 3.3 0 6-.7 8.3-2.3 7.8-.7-.2-2.7-.6-4.4-.9-3-.5-3.3-.3-3.3 1.9 0 1.7.6 2.5 1.8 2.6 1.9.2-7.4 2.1-10 2-.9 0-2.4.9-3.4 2-2 2.2-3.5 2.5-3.2.6.2-.6-.4-1.2-1.2-1.2-.8 0-1.4.6-1.2 1.3.3 1.5-2 1.6-3.4.2-.8-.8-.8-2.3-.1-4.8.6-2.1.7-5.5.2-7.7-.7-3.8-.8-3.9-1.6-1.6-.7 1.7-.6 2.7.3 3.2.7.4.9 1.1.5 1.6-.5.4-1.2.1-1.6-.6-.6-.8-1.4-1-2.2-.5-1.2.6-1.2.5 0-.9.7-.9 1-1.7.5-1.7s-.2-.4.6-1c1.2-.8 1.2-1-.3-1.6-.9-.3-1.7-1.4-1.7-2.4 0-2-2.3-4.3-3.3-3.3-.4.3-.7 2.6-.7 5 0 5.5-2 7.8-6.6 7.4-2.4-.2-3.5.3-4.3 1.8-1.6 2.9-1.4 3.1 2.2 3.2 3 .1 3.1.1.7.9-1.4.4-3.5.5-4.6.3-1.4-.3-3.2.5-5 2.2-2.7 2.5-2.8 2.5-4.7.7-2.5-2.5-1.2-5.1 3.8-7.8l3.6-1.9-.3-10.8c-.2-8 .1-11 1.1-11.6 1-.6.9-1.1-.3-2.4-3.4-3.4-1.5-6.7 3.9-6.7 1.3 0 2.9-.8 3.4-1.8.6-.9 1.1-1.1 1.1-.4 0 .8 1.8 1.2 6 1.1 6.8-.2 6.5-.3 7.5 3 .5 1.8.4 2.2-.5 1.6-.9-.6-1.1-.4-.5.5.5.7 1.2 2.7 1.6 4.4.5 2.4.7 1.9.6-2.3l-.2-5.5 6-1.2c3.3-.6 8.4-1.7 11.4-2.3 2.9-.6 8.4-1.1 12-1.1 6.3 0 6.9-.2 10.1-3.5 1.8-1.9 3.5-3.4 3.6-3.2.1.1.4 11.9.8 26.2zm724.3-20.8c-.3 1-.5.4-.5-1.2 0-1.7.2-2.4.5-1.8.2.7.2 2.1 0 3zM174 718.9c0 4.5.4 6 2 7.4 3.3 2.8 4.2 1.2 3.6-6.3l-.6-6.8 3.6-.7c2-.3 4-.3 4.5.2.4.4.9 4.3 1.1 8.5.2 5 .7 7.9 1.6 8.3 1.4.5 1.7 5.5.3 5.5-1.7 0-2.3-2-1.1-3.5 1.5-1.8.6-1.9-1.9-.3-1.9 1.2-1.9 1.3 0 6.2 1 2.8 1.9 5.2 1.9 5.4 0 .1-.9-.3-1.9-1-1.1-.7-1.8-1.5-1.5-1.9.2-.4-.1-2-.6-3.5-1-2.5-1.2-2.6-2.4-.9-.7 1-1.8 1.5-2.4 1.1-.6-.4-2.2-.4-3.6 0-2.4.6-2.4.7-2 9.5.3 5.1.1 8.9-.4 8.9-.9 0-1.8-11.2-2.7-33.4-.4-9.4-.3-10.6 1-9.6 1 .8 1.5 3.1 1.5 6.9zm443-5.9c0 .5-.4 1-1 1-.5 0-1-.5-1-1 0-.6.5-1 1-1 .6 0 1 .4 1 1zm274 9.3c-.7 1.7-.9 1-.9-2.8.1-4.3.2-4.6.9-2.2.5 1.6.5 3.8 0 5zm-689.3-1.6c-.3 1-.5.4-.5-1.2 0-1.7.2-2.4.5-1.8.2.7.2 2.1 0 3zm418 1.8c-.1 4.2-1.7 4.8-1.7.7 0-2.4.7-4.2 1.6-4.2.1 0 .2 1.6.1 3.5zm271.3 8.1c0 .8-.4 1.2-1 .9-.5-.3-1-1-1-1.6 0-.5.5-.9 1-.9.6 0 1 .7 1 1.6zm-149.3 2.2c1.7.5 2 1.1 1.3 2.2s-1 1.1-1 .2c0-.7-2.2.6-5 3-2.7 2.4-5 4.7-5 5.3 0 .6-2.7 1-6 1l-6 .1v-3.2c0-3.3.3-3.5 13-7.7 5.2-1.7 5.7-1.7 8.7-.9zM502 737c0 .8-7.4 1.6-10.3 1.1-2.6-.5-12.2 2.1-13.4 3.6-.8 1-1.2 1.2-.8.5 1-2-1.2-1.4-4.5 1.4-2.4 2.1-3 3.2-2.6 5 .5 2-.5 3.3-1.6 2.2-.2-.2-1.7.7-3.5 2-2.2 1.6-3 2.8-2.6 3.9.5 1.2.2 1.5-.9 1.1-.9-.4-2.1-.1-2.7.5-.6.6-1.3.8-1.6.5-1.1-1 15.9-18.1 19.5-19.6 1.9-.9 5.3-1.9 7.5-2.2 6.3-1.2 17.5-1.1 17.5 0zm28.7 4.2c-.2 1.3-.4.5-.4-1.7-.1-2.2.1-3.2.4-2.3.2 1 .2 2.8 0 4zm210-1.6c-.3.3-1.2.4-1.9.1-.8-.3-.5-.6.6-.6 1.1-.1 1.7.2 1.3.5zm-6.3 35.1l.1 28.1-3.8.4c-3 .3-4.2-.1-5.2-1.5-.9-1.3-2-1.7-3.1-1.3-1.5.6-1.6-1-1.1-21.6.4-12.3.7-24.7.7-27.6v-5.3l6.1.3 6.1.3.2 28.2zm-557.1-23c-.4 1.1-.3 1.4.5.9.7-.4 1.2-.2 1.2.4 0 .7-.6 1-1.2.8-1.6-.6-2.3-3.8-.9-3.8.6 0 .7.7.4 1.7zm-24.6.9c-.3.3-1.2.4-1.9.1-.8-.3-.5-.6.6-.6 1.1-.1 1.7.2 1.3.5zm7.7.9c-1 .8-2.3 1.5-2.8 1.5-.6 0-.1-.7 1-1.5 1-.8 2.3-1.5 2.8-1.5.6 0 .1.7-1 1.5zm-46.1.2c-.7.2-1.9.2-2.5 0-.7-.3-.2-.5 1.2-.5s1.9.2 1.3.5zm367.7-.3c0 1.1-1.9 1.5-2.5.6-.3-.5.1-1 .9-1 .9 0 1.6.2 1.6.4zm121 .6c0 .5-.5 1-1.1 1-.5 0-.7-.5-.4-1 .3-.6.8-1 1.1-1 .2 0 .4.4.4 1zm359.5 1c-7.8 1.2-37.5 2.1-37.5 1 0-1 6.3-1.4 27.5-1.7 10.7-.1 13.6.1 10 .7zm-812.7 2.8c4.5-.2 8.2-.1 8.2.3 0 2.2-17.1 1.2-17.7-1.1-.4-1.2-.2-1.2.5-.2.6.9 3.2 1.2 9 1zM138 759c0 .5-.2 1-.4 1-.3 0-.8-.5-1.1-1-.3-.6-.1-1 .4-1 .6 0 1.1.4 1.1 1zm523 .4c0 .3-.4.8-1 1.1-.5.3-1 .1-1-.4 0-.6.5-1.1 1-1.1.6 0 1 .2 1 .4zm-235 3v2.4l-18.4.7c-10.1.4-18.9.4-19.5.1-.6-.4-1.1-1.5-1.1-2.5 0-1.6 1.3-1.8 13.7-2 7.6-.1 14-.4 14.2-.7.2-.2 2.8-.4 5.8-.4 4.9 0 5.3.2 5.3 2.4zm30-.9c-.7.8-1.6 1.2-2.1.9-1.3-.8-.1-2.4 1.8-2.4 1.3 0 1.3.3.3 1.5zm209.9 5.1c.9 1-15.2-.5-16.1-1.4-.4-.4 2.9-.4 7.4 0 4.4.4 8.4 1.1 8.7 1.4zM448 766c0 1.3-1.1 1.3-3 0-1.2-.8-1.1-1 .8-1 1.2 0 2.2.4 2.2 1zm8 0c0 .5-.4 1-.9 1-.6 0-1.3-.5-1.6-1-.3-.6.1-1 .9-1 .9 0 1.6.4 1.6 1zm132.7 2.2c-.3.7-.5.2-.5-1.2s.2-1.9.5-1.3c.2.7.2 1.9 0 2.5zm63.4.8c1.2 0 1.9.7 1.9 1.8 0 1 .7 2.8 1.6 4 2 2.9.5 2.8-2.1-.1-1.1-1.3-1.6-1.7-1.1-1 1.8 2.7-.7 2.7-3 0-2.8-3.2-3.2-6.2-.8-5.3.9.3 2.4.6 3.5.6zm94.9 1c0 .5-.5 1-1.1 1-.5 0-.7-.5-.4-1 .3-.6.8-1 1.1-1 .2 0 .4.4.4 1zm-166.2 1.6c.6-.3 1.3-.2 1.6.3.8 1.2-2.8 2.1-4.4 1.1-.7-.4-.9-1.3-.5-2 .6-1 .9-.9 1.5 0 .4.7 1.2 1 1.8.6zM750 773c-.6 1.1-1.3 2-1.6 2-.2 0 0-.9.6-2s1.3-2 1.6-2c.2 0 0 .9-.6 2zm49-.6c0 .3-.4.8-1 1.1-.5.3-1 .1-1-.4 0-.6.5-1.1 1-1.1.6 0 1 .2 1 .4zM590 774c0 .5-.2 1-.4 1-.3 0-.8-.5-1.1-1-.3-.6-.1-1 .4-1 .6 0 1.1.4 1.1 1zm175 2c0 .5-.5 1-1.1 1-.5 0-.7-.5-.4-1 .3-.6.8-1 1.1-1 .2 0 .4.4.4 1zm32.4.2c-.2.3 1.1 1.1 2.9 1.8 3.1 1.1 3.1 1.2 1 2.1-1.3.4-2.3 1.3-2.3 1.9 0 .5-.7 1-1.6 1-1.2 0-1.4-.7-.9-3.1.5-2.2.4-2.9-.4-2.5-.6.4-1.1 1.4-1.1 2.1 0 .8-.6 1.2-1.4.9-.8-.3-1.2-1.3-1-2.2.4-1.3.3-1.3-.6.2-1 1.4-1.4 1.6-2.1.5-.4-.7-.4-1.8.1-2.4.9-1.1 8.1-1.4 7.4-.3zm-21 3.9c-.6 1.1-2.4.2-2.4-1.1 0-.5.7-.7 1.5-.4.8.4 1.2 1 .9 1.5zm-3.4.4c.7.9 1 1.8.7 2.1-.6.7-4.7-1.8-4.7-2.8 0-1.4 2.7-.9 4 .7zm8 2.1c0 .8-.4 1.4-1 1.4-.5 0-1-.4-1-.9s-.3-1.8-.7-2.8c-.6-1.6-.5-1.6 1-.4.9.7 1.7 2 1.7 2.7zm-26.7 1.5c-.5.5-.9-.3-1.1-1.9-.1-2.4 0-2.5.9-.9.7 1.1.7 2.3.2 2.8zm4.7-2.1c0 .5-.4 1-1 1-.5 0-1-.5-1-1 0-.6.5-1 1-1 .6 0 1 .4 1 1zm11.2 2.5c2.6 3 3.4 3.1 4.1.5.6-2.3 3.7-2.7 3.7-.5 0 .8.6 1.5 1.4 1.5.7 0 2.8.3 4.5.6 3.6.7 4.5-1.4 1-2.3-1.5-.4-1.7-.8-.8-1.4.8-.4 1.9-.3 2.7.3 1 .9 1.5.9 2 .1s2-.8 5.5 0c3.8.8 4.6 1.4 4.2 2.8-.3.9-.1 2 .4 2.3 1.2.8 2.3-2.6 1.5-4.8-.5-1.2 0-1.6 1.8-1.6 1.7 0 2.4.6 2.5 2.2.1 1.3.5 3.3.8 4.5.6 2.4-1 3.3-1.8 1-.2-.6-.8-.9-1.2-.4-1.5 1.3 1.2 2.9 5 3 3.3.1 3.5.2 1.9 1.4s-1.6 1.3.7 1.4c2.4 0 2.4 0 .2.9-1.5.6-2.1 1.5-1.7 2.5.3.8.1 1.5-.5 1.5-.7 0-.7.8-.1 2.6 1.3 3.3 1.3 3.4-.5 3.4-.9 0-1.4-.8-1.2-2.1.1-1.6-.4-2.2-2.5-2.4-1.5-.2-3 .1-3.3.6-.7 1.1-3.6 1.2-3.4.1.3-1.9-.3-2.2-2.2-1.2-1.5.9-2.4.8-3.5-.1-.8-.6-1.4-.8-1.4-.5 0 .4-1-.2-2.2-1.4-3-2.8-2.6-2.9-9.5 3-1.8 1.5-3.3 1.2-3.3-.6 0-.8-.5-1.2-1.1-.9-.6.4-.8 1.4-.5 2.2.5 1.1-.1 1.4-2.2 1.1-1.7-.2-2.7-.9-2.6-1.9.1-.9-.5-1.6-1.2-1.6s-1 .5-.7 1c.3.5 0 .7-.8.5-.8-.3-1.3-1.1-1.1-1.8.2-.8-.3-1-1.3-.6-2.3.8-5.5-1.1-5.5-3.4 0-1-.4-2.2-1-2.5-2.6-1.6.2-6.3 3.3-5.6.4.1.3-.7-.2-1.8-1-1.8-1-1.8 2.7 0 2 1.1 4.2 2.6 4.8 3.3.5.8 2.2 1.8 3.7 2.1 2.2.6 2.6.4 2.1-.9-.3-.9-1.5-1.6-2.5-1.6-1.3 0-1.9-.7-1.9-2.1 0-1.1-.4-1.8-.8-1.5-1.3.8-3.5-1.1-2.8-2.3 1.1-1.7 2.4-1.3 4.8 1.4zm-19.5 5.5c-.2 2.2-.1 4.3.4 4.6.9.5 1.3-1.7 1-4.4-.1-.6.3-1.2 1-1.2 1.6 0 .2 6.6-1.9 9.1-.9 1-2.3 1.9-3.2 1.9-.8 0-2.8.9-4.5 2-3.3 2.2-5 2.6-4 .9.4-.5-.1-1.9-1.1-3-1.6-1.8-1.6-1.9.3-1.9 1.2 0 2.3.7 2.7 1.5.6 1.8 2.6 2 2.6.4 0-1.8-3.2-3.8-6.2-3.9-2.7 0-2.7-.1-1-1.8.9-1 1.9-1.5 2.2-1.2.8 1 5 1.9 5 1.1 0-.4-.5-1.2-1.1-1.8-.8-.8-.5-1.3 1.2-1.9 1.3-.4 3.1-.8 3.9-.8.9-.1 1.4-.8 1.2-1.9-.2-.9.2-1.7.8-1.7.8 0 1 1.4.7 4zm4.3-3c0 .5-.7 1-1.5 1s-1.5-.5-1.5-1c0-.6.7-1 1.5-1s1.5.4 1.5 1zm4-.6c0 .3-.4.8-1 1.1-.5.3-1 .1-1-.4 0-.6.5-1.1 1-1.1.6 0 1 .2 1 .4zm55 1.5c0 1.2-2.9 3.5-3.6 2.8-.7-.6 1.7-3.6 2.9-3.7.4 0 .7.4.7.9zm2.8 7.8c.4-.3 1.4-.2 2.2.4 1.2.7 1.1.9-.5.9-1.1 0-3.1.3-4.5.7-2.1.6-2.3.4-1.3-.9.7-.8.9-1.9.5-2.4-.4-.4.1-.2 1 .5s2.1 1 2.6.8zm8.2 5.3c0 .5-.5 1-1.1 1-.5 0-.7-.5-.4-1 .3-.6.8-1 1.1-1 .2 0 .4.4.4 1zm16 1.4c0 .3-.4.8-1 1.1-.5.3-1 .1-1-.4 0-.6.5-1.1 1-1.1.6 0 1 .2 1 .4zm-49.5 1.6c.3.5 1.2.7 2 .3 2.1-.7 1.9.4-.3 1.6-1.4.7-2.1.5-3-1-.7-1-.8-1.9-.3-1.9.6 0 1.2.4 1.6 1zm186.8 4.1c-.8.8-1.3.7-1.8-.2-.5-.8-.4-1 .3-.5.7.4 1.2.2 1.2-.5s.3-.9.7-.6c.4.4.2 1.2-.4 1.8zm16.7-.7c0 .2-1.1.6-2.5.8-1.4.3-2.5.1-2.5-.3 0-.5 1.1-.9 2.5-.9s2.5.2 2.5.4zM893 815c0 .5-.6 1.3-1.4 1.7-.7.4-1.5 1.3-1.7 1.9-.2.7-1.2.8-2.4.4l-2-.8 2-.8c1.1-.4 2.4-1.3 2.8-2.1.9-1.5 2.7-1.8 2.7-.3zm43 7.6c0 1.4-.3 1.4-1.5.4-.8-.7-1.5-1.4-1.5-1.6 0-.2.7-.4 1.5-.4s1.5.7 1.5 1.6z"/><path d="M29 25c0 .5.5 1 1 1 .6 0 1-.5 1-1 0-.6-.4-1-1-1-.5 0-1 .4-1 1zM959.6 441.9c-.4.5.3.7 1.4.4 2.3-.6 2.6-1.3.6-1.3-.8 0-1.7.4-2 .9zM596.3 659c0 3 .2 4.3.4 2.7.2-1.5.2-3.9 0-5.5-.2-1.5-.4-.2-.4 2.8zM524 657.1c-1.5.6-2 1.3-1.3 1.7.6.4 1.1 2 1 3.7-.1 9.9 1.9 9.7 2.5-.3.1-3.4.3-6.2.3-6.1 0 0-1.1.5-2.5 1zM583.8 664.3c-2.3 1.8-1.3 10.7 1.2 10.7 2.7 0 3.8-2.1 3.6-7-.1-4.8-1.7-6-4.8-3.7zM569 665.6c0 .8-.5 1.2-1 .9-.6-.3-1.9-.3-3 0-1.7.5-2 1.5-1.9 7.1.1 5.3.4 6.4 1.8 6.4 1.6 0 2.1-1.8 2.4-10.2.2-3.2 1.2-.7 1.4 3.4.1 2.2.6 4.5 1.1 5 1.2 1.2 2.5-8.2 1.6-11.7-.7-2.7-2.4-3.4-2.4-.9zM542 674.3c0 4 1.3 6.7 3.2 6.7.4 0 .8-2.5.8-5.5 0-4.8-.2-5.5-2-5.5-1.7 0-2 .7-2 4.3zM524.7 672.7c-.8 1.4.5 12.3 1.4 12.3 1.2 0 1.2-11.7 0-12.5-.5-.3-1.2-.2-1.4.2zM548.3 676.5c0 2.7.2 3.8.4 2.2.2-1.5.2-3.7 0-5-.2-1.2-.4 0-.4 2.8zM595.6 676.8c-.2.4-.1 1.4.5 2.2.7 1.2.9 1 .9-.8 0-2.3-.5-2.8-1.4-1.4zM582.8 677.7c-3.5.9-1.7 2.4 2.5 2.2 5-.3 6.7-.8 6.7-2 0-.9-6.1-1-9.2-.2zM561 683c-1.9 1.2 5.2 1.2 9 0 2-.6 1.5-.8-2.5-.9-2.7 0-5.7.4-6.5.9zM543.1 683.9c-6 .8-6.8 3.1-.9 2.5 6.7-.8 8.8-1.4 8.8-2.4 0-1.1-.8-1.1-7.9-.1zM524.4 687.3c-.8.4-1.4 1.2-1.4 1.7 0 1.3 6.1.1 7.8-1.5 1.1-1 .7-1.2-1.8-1.1-1.7.1-3.8.5-4.6.9zM612.1 688.6c0 1.1.3 1.4.6.6.3-.7.2-1.6-.1-1.9-.3-.4-.6.2-.5 1.3zM615 692.5c0 .5.5 1.7 1 2.5s1 1 1 .5c0-.6-.5-1.7-1-2.5s-1-1.1-1-.5zM609 694.2c0 .9.5 2 1 2.3 1.3.8 1.3-.5 0-2.5-.8-1.3-1-1.3-1 .2zM588.1 703.8c-.7 1.3-1.1 2.6-.8 2.8.8.8 2.9-2.5 2.5-3.8-.3-.8-.9-.4-1.7 1zM606.1 706.6c0 1.1.3 1.4.6.6.3-.7.2-1.6-.1-1.9-.3-.4-.6.2-.5 1.3zM527.7 708c-.3 1.1-.1 2 .4 2s.9-.9.9-2-.2-2-.4-2-.6.9-.9 2zM597.1 707.6c0 1.1.3 1.4.6.6.3-.7.2-1.6-.1-1.9-.3-.4-.6.2-.5 1.3zM583.5 711c-1.6.7-1.3.9 1.7.9 2 .1 4-.4 4.3-.9.7-1.2-3.2-1.2-6 0zM563.5 712c-1.5.6-.6.9 3.3.9 2.8.1 5.2-.4 5.2-.9 0-1.2-5.7-1.2-8.5 0zM607.3 713.1c-.1 1 .2 1.9.8 1.9 1.1 0 1.2-2.7.1-3.4-.4-.2-.9.4-.9 1.5zM538.9 714l-2.4 1.9 3.3.7c3.1.6 3.2.8 3.3 6.3.1 3.1 0 8.6-.1 12.2-.2 7.3 1.3 9.9 4.8 8 1.7-.9 1.8-1.6 1.1-6.9-.5-3.2-.5-8.2 0-11.1.5-2.9.4-5.4-.1-5.7-.5-.3-.6-1.4-.3-2.5.6-1.6.1-1.9-3.2-2l-3.8-.1 3.5-.8c1.9-.5 3.8-.6 4.2-.4.5.3.8 0 .8-.5 0-1.9-8.6-1.3-11.1.9zm8.1 26.4c0 .3-.4.8-1 1.1-.5.3-1 .1-1-.4 0-.6.5-1.1 1-1.1.6 0 1 .2 1 .4zM588.7 712.8c-1.6.3-1.7 1.6-1.2 16 .3 8.6.8 17.2 1.1 19 .8 5.3 2.4 2.6 2.4-4 0-7.6.9-7.2 1.2.5.1 3.1.5 5.7.9 5.7 1.8 0 .3-36.7-1.5-37.3-.6-.2-1.9-.2-2.9.1zm3.7 22.7c-.4.8-.8 1.5-1 1.5-.2 0-.4-.7-.4-1.5s.4-1.5 1-1.5c.5 0 .7.7.4 1.5zM566.4 714.8c-.6.4-1 2.3-.9 4.2 0 1.9.2 5.4.3 7.7.1 3 .6 4.3 1.6 4.3.8 0 1.7-.6 1.9-1.3.4-.9.8-.9 1.5.1.8 1.1 1 1.1 1.4 0 .8-1.9.3-13.1-.6-14.6-.8-1.3-3.5-1.6-5.2-.4zM609 719c0 .5.5 1 1 1 .6 0 1-.5 1-1 0-.6-.4-1-1-1-.5 0-1 .4-1 1zM567.4 734c-2.2.9-3.2 4.4-2.6 8.7.2 1.7 1 2.3 2.7 2.3 2.8 0 4.5-2.6 4.5-6.8 0-3.6-1.8-5.2-4.6-4.2zM617 739c-.9 1.6-.8 1.8.5 1.4.8-.4 1.5-1.2 1.5-2 0-2-.7-1.7-2 .6zM617 743c0 .5.5 1 1.1 1 .5 0 .7-.5.4-1-.3-.6-.8-1-1.1-1-.2 0-.4.4-.4 1zM598 745.5c0 1.7.2 1.8 2.4.9 1.8-.7 1.2-2.4-1-2.4-.8 0-1.4.7-1.4 1.5zM541 746c-1.2.8-1.2 1 .5 1 1.1 0 3.8.3 6 .6 2.7.5 3.7.3 3-.3-1.5-1.6-7.8-2.4-9.5-1.3zM565 748.8c0 .5 1.3.9 2.8 1 1.5 0 3.3.2 3.9.4.6.2 1.3-.2 1.5-.7.1-.6-1.6-1.1-3.9-1.3-2.4-.2-4.3.1-4.3.6zM355 689c-1.5.5.2.6 4.5.3 3.9-.3 7.2-.7 7.4-.9.8-.8-9.5-.2-11.9.6zM359.9 691.9c.9.6 1 1.1.2 1.5-.6.4-1.1 2.1-1.1 3.7 0 2.2.6 3.2 2.3 3.8 3.2 1.2 3.7.6 3.6-4.9-.2-4.9-.2-5-3.3-5-2.1 0-2.7.3-1.7.9zM328.8 692.7c.7.3 1.6.2 1.9-.1.4-.3-.2-.6-1.3-.5-1.1 0-1.4.3-.6.6zM342.5 693.1c-.3.4.1.9.9 1.2 1 .4 1.3 1.7.9 4.1-.4 2.8-.1 3.6 1.1 3.6.9 0 1.6-.3 1.6-.8 0-.4.4-2.3.9-4.4.8-3.5.7-3.6-2.1-4-1.6-.3-3.1-.1-3.3.3zM331.5 696c.3.6.8 4.5 1.1 8.7.4 7.2.9 9.2 1.8 8.2.2-.2.6-4.3.8-9.2.4-8.6.4-8.7-1.9-8.7-1.4 0-2.1.4-1.8 1zM304.1 697.4c.7.8 9.8 1 10.5.3.4-.4-1.9-.7-5.1-.7-3.2 0-5.6.2-5.4.4zM290.5 699c.3.5 1.2 1 2 1s1.7-.5 2-1c.4-.6-.5-1-2-1s-2.4.4-2 1zM296 703c0 1.6.5 3 1 3 .6 0 1-1.4 1-3 0-1.7-.4-3-1-3-.5 0-1 1.3-1 3zM307.5 702.2c-1.7 5.4-1.6 6 .7 5.6 1.9-.2 2.4-1 2.6-4.1.4-4.2-2-5.3-3.3-1.5zM344.5 705.2c-.2.7-.3 2.5-.2 4 .2 2.3.7 2.8 2.7 2.7 1.4 0 1.9-.3 1.3-.6-.7-.2-1.3-2-1.3-3.9 0-3.3-1.6-4.7-2.5-2.2zM359.8 706.5c.5 2.8 2.7 3.3 3.6.9 1-2.7.7-3.4-1.8-3.4-1.9 0-2.2.4-1.8 2.5zM229.7 709.2c-.7 2.3-.1 3.8 1.4 3.8.5 0 .9-1.4.9-3 0-3.5-1.5-4-2.3-.8zM238.5 708c.4.6.6 3.5.6 6.5s.4 5.5.9 5.5.9-2.9.9-6.5c0-5.1-.3-6.5-1.5-6.5-.8 0-1.2.5-.9 1zM246.5 708.2c-.3.7-.3 3.1-.1 5.3.2 2.2.4 4.8.5 5.8.1 1 .5 1.6 1 1.3 1.3-.8 1.3-13.6.1-13.6-.6 0-1.3.6-1.5 1.2zM320.9 708.2c-.1.2-.3 1.5-.5 3-.2 1.9.2 2.8 1.2 2.8.9 0 1.4-1.1 1.4-3 0-1.7-.4-3-1-3-.5 0-1.1.1-1.1.2zM363.7 709.4c-.4 1-.5 2.1-.2 2.4.9.9 1.7-.6 1.3-2.5-.3-1.7-.4-1.7-1.1.1zM308.1 709.9c-1.8 1.2-.6 8.1 1.4 8.1 1.1 0 1.5-1.2 1.5-4.5 0-4.6-.4-5.1-2.9-3.6zM216 716.1c0 5.2.2 6 1.8 5.7.9-.2 1.7-1.1 1.6-2.1 0-.9-.1-3.5-.2-5.7-.2-2.8-.6-4-1.7-4-1.2 0-1.5 1.3-1.5 6.1zM209.7 711.7c-1.4 1.3-.7 7.1.9 7.7 2.4.9 2.4.9 2.4-3.9 0-4.3-1.4-5.8-3.3-3.8zM229.4 716.6c.3.9.6 1.8.6 2 0 .2.5.4 1 .4.6 0 1-.9 1-2 0-1.2-.7-2-1.6-2-1.1 0-1.4.5-1 1.6zM345.2 735c.2 3.9.6 5 1.9 5 1.8 0 2.9-2.7 2.9-7.3 0-2.2-.4-2.7-2.5-2.7-2.4 0-2.5.3-2.3 5zM361.7 730.7c-1 1-.8 5.1.2 5.8.5.3 1.2-.3 1.4-1.2.4-1.6.5-1.6.6.1 0 1-.7 2.5-1.6 3.2-1.7 1.2-1.6 1.3.7 1.4 2.6 0 2.9-1 2.2-8.3-.2-1.7-2.2-2.3-3.5-1zM307.9 734.2c0 .2-.2 1.6-.3 3.1-.1 2.3.2 2.7 1.9 2.5 2.6-.4 2.8-5.1.3-5.6-1-.2-1.8-.2-1.9 0zM321 735.4c0 2.8 1.2 4.6 3.1 4.6 2.2 0 2.2 0 .9-3.4-1-2.7-4-3.6-4-1.2zM208.5 738c-.6 1 1.9 6 3 6 .3 0 .5-1.6.5-3.5 0-3.5-2-4.9-3.5-2.5zM215.9 737.2c-.4 1.3-.5 5.5-.2 6.5.9 2.3 2.9.2 3-3.2.1-2.4-.3-3.5-1.3-3.5-.8 0-1.4.1-1.5.2zM223 741.6c0 2.7.4 4.3 1 3.9.6-.3 1-2.4 1-4.6 0-2.1-.4-3.9-1-3.9-.5 0-1 2.1-1 4.6zM230.2 741.1c-.2 3.6 0 3.9 1.3 2.5 1.9-1.8 2-6.6.2-6.6-.9 0-1.4 1.4-1.5 4.1zM238.2 740.7c.2 2.1.8 3.8 1.3 3.8.6 0 1.1-1.7 1.3-3.8.3-2.9 0-3.7-1.3-3.7s-1.6.8-1.3 3.7zM247.5 738c-.9 1.4.4 7 1.6 7 1.2 0 1.2-6.7 0-7.5-.5-.3-1.3-.1-1.6.5zM283 742c-1.2.8-1 1 .9 1 1.4 0 3.3.7 4.3 1.7 1.7 1.5 1.8 1.5 1.8-.4 0-3-3.9-4.3-7-2.3zM308 745.5c0 3.7 1.8 4.7 4 2 1.6-1.9.3-5.5-2.1-5.5-1.5 0-1.9.7-1.9 3.5zM345.8 745c.3 2.1.9 3 2.1 2.8 3.7-.6 3.4-5.8-.3-5.8-1.9 0-2.2.4-1.8 3zM361 742.9c0 .5.9.7 2 .4 1.1-.3 2-.7 2-.9 0-.2-.9-.4-2-.4s-2 .4-2 .9zM322 746c0 2 .5 3 1.5 3 .8 0 1.5-.3 1.5-.8 0-.4.3-1.7.6-3 .5-1.8.2-2.2-1.5-2.2s-2.1.6-2.1 3zM201.5 748c-.3.5.3 1 1.4 1 1.1 0 2.3-.5 2.6-1 .3-.6-.3-1-1.4-1-1.1 0-2.3.4-2.6 1zM209 749c0 .5.7 1 1.5 1s1.5-.5 1.5-1c0-.6-.7-1-1.5-1s-1.5.4-1.5 1zM309.8 751.7c.7.3 1.6.2 1.9-.1.4-.3-.2-.6-1.3-.5-1.1 0-1.4.3-.6.6zM323 752c0 .5.7 1 1.5 1s1.5-.5 1.5-1c0-.6-.7-1-1.5-1s-1.5.4-1.5 1zM363 752c0 .5.8 1.4 1.8 1.9 1.4.8.9 1.1-2.3 1.2l-4 .2 4.5.7c2.5.4 4.6.6 4.8.5.1-.1-.2-1.4-.7-2.9-1-2.4-4.1-3.7-4.1-1.6zM414.5 682.9c-.6 1.1.9 2.3 1.9 1.4.9-.9.7-2.3-.3-2.3-.6 0-1.2.4-1.6.9zM400.2 684.2c-1.4 1.4-1.6 9.4-.3 10.2.4.3 1.5-2.1 2.3-5.4 1.5-6 .8-7.6-2-4.8zM423.9 688.2c.3 5 .4 5.1 1.8 2.7 1.4-2.3 1.4-2.2.9 1.9-.4 3.8-.2 4.2 1.5 3.7 1.4-.5 1.7-.2 1.3.9-.4 1.2 0 1.6 1.5 1.6 1.8 0 2-.3 1.1-1.9-.5-1.1-.7-3.9-.4-6.4.7-5.2-.7-6.8-3.7-4.1-1.8 1.6-1.9 1.6-1.9-.9 0-1.5-.6-2.7-1.2-2.7-.9 0-1.2 1.5-.9 5.2zM391.3 685.1c1.4.8 1.5 1.4.7 2.4-1.8 2.2-.8 7 1.5 7.3 1.7.2 2-.3 1.9-4-.1-6.6-.2-6.8-3.1-6.8-2.5.1-2.6.2-1 1.1zM415.7 688.1c.4 1.3.8 1.8 1.1 1 .2-.7-.1-1.8-.6-2.3-.8-.8-.9-.4-.5 1.3zM460 686.7c-2.4.8-3.8 3.1-3.3 5.7.4 1.8 1 2.3 2.5 2.1 2.5-.5 2.4-.3 3.1-4.2.7-3.4.1-4.3-2.3-3.6zM376.8 688.7c.6.2 1.8.2 2.5 0 .6-.3.1-.5-1.3-.5-1.4 0-1.9.2-1.2.5zM415.7 691.7c-1.4 1.3-.6 2.3 1.8 2.3 1.4 0 2.5-.4 2.5-.9s-1-.7-2.2-.3c-1.4.3-1.9.2-1.4-.6.8-1.3.3-1.6-.7-.5zM456.5 697c-.4.6 1 1 3.5 1s3.9-.4 3.5-1c-.3-.6-1.9-1-3.5-1s-3.2.4-3.5 1zM400 700.1c0 1.7.3 1.9 1.3 1 .8-.6 1.7-.8 2-.4.4.3.7-.1.7-1 0-1-.8-1.7-2-1.7-1.4 0-2 .7-2 2.1zM401 704c0 .5.5 1 1.1 1 .5 0 .7-.5.4-1-.3-.6-.8-1-1.1-1-.2 0-.4.4-.4 1zM389.1 708.6c0 1.1.3 1.4.6.6.3-.7.2-1.6-.1-1.9-.3-.4-.6.2-.5 1.3zM478.1 711.7c-.1 1.2-.7 2.4-1.3 2.6-1 .4-1 .6 0 .6 1.5.1 2.6-2.3 1.9-4.1-.3-.7-.6-.3-.6.9zM430.8 720.7c-1.6.4-1.8 1.9-1.8 13.4V747h2.5c2.2 0 2.5-.5 2.7-3.8.2-7.2-.4-21.7-1-22.3-.4-.3-1.5-.4-2.4-.2zM440.5 721c-.4.6 1.1 1 3.7 1 3.1 0 3.9-.3 2.8-1-2-1.3-5.7-1.3-6.5 0zM457.6 720.9c-.3.4 1.3.8 3.5.8s4.2-.4 4.5-.8c.3-.5-1.3-.9-3.5-.9s-4.2.4-4.5.9zM443.5 724c-.1.3-.5 2.7-.6 5.5-.3 3.7-.1 4.9.9 4.7 1-.2 1 .2.2 1.7-1.3 2.5-1.3 7.8 0 8.6.5.3.7 1.2.4 1.9-.3.9.4 1.5 2.1 1.8 2.1.4 2.5.2 2-1.2-.3-1-.1-2.1.5-2.5 1.3-.8 1.3-5.1 0-7.6-.6-1.1-.8-2.5-.3-3.2.7-1.2.6-5.8-.3-8.9-.4-1.5-4.1-2.1-4.9-.8zM459 727.9c0 5.5 1 6.7 4 5.1 1.5-.8 2-2.1 2-5.5 0-4.3-.1-4.5-3-4.5s-3 .1-3 4.9zM390 727.5c0 .8.7 1.5 1.6 1.5 1 0 1.4.5 1 1.5-.8 2.2.4 7.5 1.8 7.5 1.5 0 1.5-9.2 0-10.8-1.7-1.7-4.4-1.5-4.4.3zM404.3 726.7c-1.6.6-1.7 4.9-.2 5.9.6.3 1.8-.1 2.7-1 1.5-1.5 1.4-1.6-.7-1.6-2 0-2.2-.2-1.1-1.5 1.4-1.7 1.1-2.4-.7-1.8zM418.3 727.7c-.7.2-1.3 2-1.3 3.9 0 2.9.3 3.4 2.3 3.3 1.6-.1 1.8-.2.5-.6-1.9-.5-2.5-4.3-.7-4.3.5 0 .7.4.4 1-.3.5-.1 1 .4 1 .6 0 1.1-1.1 1.1-2.5 0-2.5-.4-2.8-2.7-1.8zM404 737.4c0 1.8 3 3 4.3 1.7.5-.5.6-1.4.3-2-1-1.6-4.6-1.3-4.6.3zM417 739.6c0 .8.5 1.2 1 .9.6-.3 1-1 1-1.6 0-.5-.4-.9-1-.9-.5 0-1 .7-1 1.6zM393.5 741.5c-.5.2-2.7.6-4.7 1-3.6.6-3.8.8-3.8 4.5v4h6.5c5.2 0 6.5-.3 6.5-1.5 0-1.6-2.7-8.6-3.2-8.4-.2 0-.7.2-1.3.4zM399.3 742.6c-.3.8-.1 2.9.4 4.7.7 2.5 1.5 3.3 3.6 3.5 1.5.2 2.7.8 2.7 1.3s.5.9 1 .9c.6 0 .9-.5.8-1.2-.3-1.3 0-1.4 8.5-2.3 3.1-.4 5.7-.9 5.7-1.3s-2.6-2-5.8-3.5c-6.7-3.4-16-4.5-16.9-2.1zM440.5 747c-.3.5.1 1 .9 1 .9 0 1.6-.5 1.6-1 0-.6-.4-1-.9-1-.6 0-1.3.4-1.6 1zM442 751.9c0 .5.6 1.4 1.4 2 1.6 1.3 3.2-.2 2.1-1.9-.8-1.2-3.5-1.3-3.5-.1zM447.3 754.8c-.6.4-1.3 1.7-1.7 2.9-1 3.2 1.7 3 3.2-.2 1.2-2.5.4-3.9-1.5-2.7zM135.7 716.7c-.4.3-.7 2.6-.7 5 0 3.1.4 4.3 1.5 4.3 1.2 0 1.3-.9.8-4.8-.7-5.3-.7-5.5-1.6-4.5zM141.6 720.7c.5 6.3 2.2 7.8 1.9 1.6-.3-6.2-.3-6.3-1.4-6.3-.4 0-.7 2.1-.5 4.7zM147.6 719.5c-.4 2-.4 4-.1 4.5 1.3 2.1 2.2.8 2.3-3.5.2-5.3-1.3-6-2.2-1zM153 719.7c0 3.8 1.4 7.2 2.2 5.7.8-1.4-.3-9.4-1.3-9.4-.5 0-.9 1.7-.9 3.7zM114.5 719.3c-.9 2.1.2 7 1.4 6.3 1.6-1 1.9-4.5.6-6.3-1.3-1.7-1.4-1.7-2 0zM125.9 718.4c-.8.8.3 9.6 1.2 9.6.5 0 .9-2.3.9-5 0-4.4-.7-6-2.1-4.6zM130.1 722.7c0 3 .3 5.3.9 5.3 1.1 0 1.1-3.1 0-7.5-.7-2.6-.8-2.2-.9 2.2zM101.4 720.1c-.3.6-.2 1.4.3 1.8.6.3 1.3 1.3 1.6 2.1.3.8.6 0 .6-1.8.1-3.2-1.1-4.2-2.5-2.1zM110 723.1c0 2.4.4 3.8 1 3.4.6-.3 1-2.2 1-4.1 0-1.9-.4-3.4-1-3.4-.5 0-1 1.8-1 4.1zM123.1 729.6c0 1.1.3 1.4.6.6.3-.7.2-1.6-.1-1.9-.3-.4-.6.2-.5 1.3zM123 734.3c0 .9-.7 1.7-1.5 1.7s-1.5.4-1.5 1c0 .5 1 .8 2.3.6 1.5-.2 2.1-.9 1.9-2.2-.5-2.5-1.2-3.2-1.2-1.1zM110 738.4c0 4.3 1.7 5.6 3 2.2 1.1-3 .4-5.6-1.6-5.6-.9 0-1.4 1.2-1.4 3.4zM105 738.9c0 1.7.5 3.3 1 3.6.6.4 1-.8 1-2.9 0-2-.4-3.6-1-3.6-.5 0-1 1.3-1 2.9zM126.4 737.5c-1 2.6.6 12.7 1.9 12.2.7-.2 1.2-.9 1.1-1.5-.1-.7-.2-3.7-.2-6.7-.2-5.2-1.6-7.2-2.8-4zM101.4 738.6c.3.9.6 2.8.7 4.2 0 2.5.1 2.6.9.5 1-2.4.2-6.3-1.2-6.3-.6 0-.7.7-.4 1.6zM142.4 738.1c-.6.8-.8 2.5-.4 3.9.6 2.1.8 2.2 1.4.8.4-.9.6-2.7.4-3.9-.2-1.8-.5-2-1.4-.8zM147.2 740.5c0 2.3.5 3.5 1.4 3.5.9 0 1.4-1.2 1.4-3.5s-.5-3.5-1.4-3.5c-.9 0-1.4 1.2-1.4 3.5zM131 742c0 2.2.5 4 1 4 .6 0 1-1.8 1-4s-.4-4-1-4c-.5 0-1 1.8-1 4zM135.8 739.2c-.7 2 .6 7.2 1.7 7.2.6.1 1.1-1.8 1.2-4.2.1-2.9-.3-4.2-1.2-4.2-.7 0-1.5.6-1.7 1.2zM137.8 749.1c-2.9 1.6-2.1 2.9 1.7 2.9 2.8 0 3.5-.4 3.5-2 0-2.2-2.4-2.6-5.2-.9zM99.6 750.5c-1.9 1.5-1.9 1.5.2 1.5 1.3 0 2.2-.6 2.2-1.5 0-1.8 0-1.8-2.4 0zM182 715c-.6 1.1-.8 3-.5 4.2 1.2 5.6 1.3 7.7.2 8.2-.7.3.2.3 1.8-.1 1.7-.3 3.2-.7 3.3-.9.2-.1.1-3.2-.3-6.8-.8-6.9-2.4-8.6-4.5-4.6zM174 732.7c0 1.2.5 2.5 1 2.8 1.3.8 1.3-1.5 0-3.5-.8-1.2-1-1.1-1 .7zM802 784.5c.7.9 1.5 1.3 1.7 1.1.7-.7-.7-2.6-1.9-2.6-.6 0-.6.6.2 1.5zM789 786c0 .5.4 1 .9 1 .6 0 1.3-.5 1.6-1 .3-.6-.1-1-.9-1-.9 0-1.6.4-1.6 1zM795 786.5c0 .8.5 1.5 1 1.5.6 0 1-.7 1-1.5s-.4-1.5-1-1.5c-.5 0-1 .7-1 1.5zM762.5 790c-.4.6.5 1 1.9 1s2.6-.5 2.6-1c0-.6-.9-1-1.9-1-1.1 0-2.3.4-2.6 1zM775 789.9c0 .6.4 1.3 1 1.6.6.3.7-.1.4-.9-.7-1.8-1.4-2.1-1.4-.7zM763 792.9c0 .6.5 1.3 1 1.6.6.3 1-.1 1-.9 0-.9-.4-1.6-1-1.6-.5 0-1 .4-1 .9zM767 793c0 .5.5 1 1 1 .6 0 1-.5 1-1 0-.6-.4-1-1-1-.5 0-1 .4-1 1zM778.7 792.7c-.8 1.7-.6 6.3.3 6.3.6 0 1-1.6 1-3.5 0-3.4-.5-4.3-1.3-2.8zM784.7 793.7c.7 1.7 2 1.7 2.6-.1.4-1 0-1.4-1.2-1.3-1.1.1-1.7.7-1.4 1.4zM798.6 793.5c.4.8.8 1.5 1 1.5.2 0 .4-.7.4-1.5s-.4-1.5-1-1.5c-.5 0-.7.7-.4 1.5zM759.5 794c.3.5.8 1 1.1 1 .2 0 .4-.5.4-1 0-.6-.5-1-1.1-1-.5 0-.7.4-.4 1zM787.7 795.3c-.7 1.8 3.2 4.2 4.5 2.9.7-.7.4-1-.8-.9-1.2.1-1.9-.4-1.8-1.6.2-2-1.2-2.3-1.9-.4zM791.5 795c-.3.5-.1 1 .4 1 .6 0 1.1-.5 1.1-1 0-.6-.2-1-.4-1-.3 0-.8.4-1.1 1zM794.2 796.6c.1.9.9 1.9 1.6 2.2.9.3 1.3-.2 1-1.4-.1-.9-.9-1.9-1.6-2.2-.9-.3-1.3.2-1 1.4zM761 797c0 .5.5 1 1 1 .6 0 1-.5 1-1 0-.6-.4-1-1-1-.5 0-1 .4-1 1zM765.5 797c.3.5.8 1 1.1 1 .2 0 .4-.5.4-1 0-.6-.5-1-1.1-1-.5 0-.7.4-.4 1zM43.8.7c.7.3 1.6.2 1.9-.1.4-.3-.2-.6-1.3-.5-1.1 0-1.4.3-.6.6zM6.1 8.6c0 1.1.3 1.4.6.6.3-.7.2-1.6-.1-1.9-.3-.4-.6.2-.5 1.3zM3.2 10.5c0 1.6.2 2.2.5 1.2.2-.9.2-2.3 0-3-.3-.6-.5.1-.5 1.8zM10 9c0 .5.7 1 1.5 1S13 9.5 13 9c0-.6-.7-1-1.5-1S10 8.4 10 9zM15.1 8.9c-1 .7-1 1-.1 1.6.6.4 1.6.3 2.2-.3 1.3-1.3-.4-2.3-2.1-1.3zM.2 11.5c0 1.6.2 2.2.5 1.2.2-.9.2-2.3 0-3-.3-.6-.5.1-.5 1.8zM7.6 15.9c-.4.5.3.7 1.4.4 1.1-.3 2.6-.1 3.3.5.8.7 1.6.6 2.5-.4 1.1-1.2.7-1.4-2.7-1.4-2.2 0-4.2.4-4.5.9zM1 20c0 .5.5 1 1 1 .6 0 1-.5 1-1 0-.6-.4-1-1-1-.5 0-1 .4-1 1zM10 22c0 .5.6 1 1.4 1 .8 0 1.8-.5 2.1-1 .3-.6-.3-1-1.4-1-1.2 0-2.1.4-2.1 1zM5 23.7c0 .5.5 1.5 1 2.3.8 1.2 1 1.1 1-.8C7 24 6.6 23 6 23c-.5 0-1 .3-1 .7zM6.3 31.2c.1 3 .5 3.2 2.6 1.9 1-.7 1.1-1.3.2-2.7-1-1.8-1-1.8-1.1.1l-.1 2-.9-2c-.8-1.7-.8-1.6-.7.7zM12 31c0 .5.9 1 2.1 1 1.1 0 1.7-.5 1.4-1-.3-.6-1.3-1-2.1-1s-1.4.4-1.4 1zM4.6 35.9c-.4.5-.2 1.2.3 1.5.5.4 1.2.2 1.5-.3.4-.5.2-1.2-.3-1.5-.5-.4-1.2-.2-1.5.3zM10 36.1c0 .5.5.7 1 .4.6-.3 1-.8 1-1.1 0-.2-.4-.4-1-.4-.5 0-1 .5-1 1.1zM0 42.6c0 1.4.4 2.3.9 2 .5-.3.7-1.5.4-2.6-.7-2.8-1.3-2.5-1.3.6zM4.6 57.8c-.2.4-.1 1.4.5 2.2.7 1.2.9 1 .9-.8 0-2.3-.5-2.8-1.4-1.4zM4.2 63.3c-.9 1.1-1 1.7-.2 2.2 1.5.9 2.3.1 1.8-2.1-.3-1.5-.4-1.6-1.6-.1zM2 68.4c0 .7.9 1.6 2 1.9 1.5.4 2 0 2-1.4 0-1.2-.7-1.9-2-1.9-1.1 0-2 .6-2 1.4zM25.6 358.6c-.5 1.4-.4 1.5.9.4 1.7-1.4 1.9-2 .6-2-.5 0-1.2.7-1.5 1.6zM37 358c0 .5 1.3 1 2.9 1 1.6 0 3.2.6 3.4 1.2.3.7.6.3.6-1 .1-1.9-.4-2.2-3.4-2.2-1.9 0-3.5.4-3.5 1zM25.8 361.7c.6.2 1.8.2 2.5 0 .6-.3.1-.5-1.3-.5-1.4 0-1.9.2-1.2.5zM26 364c-1.2.8-1.1 1 .8 1 1.2 0 2.2-.5 2.2-1 0-1.3-1.1-1.3-3 0zM37.3 365.2c-.2 1.6 0 1.6 2.3.2 3-2 3-2.2.1-2-1.4 0-2.4.8-2.4 1.8zM24.8 366.7c.9.3 1 .9.2 1.8-.8 1-.4 1.2 1.5 1.2 1.4 0 2.5-.4 2.5-.9s-.4-.6-1-.3c-.5.3-1 .2-1-.4 0-.5.6-1.2 1.3-1.4.6-.3-.1-.5-1.8-.5-1.6 0-2.4.2-1.7.5zM34 369.1c0 .6 1.3.9 3 .7 1.6-.1 2.9.2 2.9.7 0 .6-.8.8-1.7.7-1.3-.3-1.4-.1-.5.8 1.6 1.7 4.3.5 4.3-2 0-1.7-.6-2-4-2-2.2 0-4 .5-4 1.1zM25 374.8c0 .4.9.8 2 .9 1.1.1 2-.2 2-.8 0-.5-.9-.9-2-.9s-2 .4-2 .8zM38.8 374.7c1.2.2 3 .2 4 0 .9-.3-.1-.5-2.3-.4-2.2 0-3 .2-1.7.4zM37.5 377c-.3.5.3 1 1.4 1 2.8 0 2.7 2-.1 2.1-1.9.1-2 .2-.4.6 2.6.7 4.2-1.2 2.6-3.2-1.4-1.7-2.6-1.9-3.5-.5zM26 379c.9.6.9.9-.1 1.2-.8.3-.9.7-.3 1.1.6.3 1.7-.2 2.6-1.2 1.5-1.7 1.4-1.9-.9-1.9-1.6 0-2 .3-1.3.8zM37 382.7c0 .5 1.1.9 2.5.9 1.4.1 2.2-.2 1.9-.7-.6-1.1-4.4-1.2-4.4-.2zM24.1 384.6c0 1.1.3 1.4.6.6.3-.7.2-1.6-.1-1.9-.3-.4-.6.2-.5 1.3zM28.1 384.6c0 1.1.3 1.4.6.6.3-.7.2-1.6-.1-1.9-.3-.4-.6.2-.5 1.3zM37 386c0 .5 1.6 1 3.5 1s3.5-.5 3.5-1c0-.6-1.6-1-3.5-1s-3.5.4-3.5 1zM37 389.7c0 1.1.3 1.4.8.7.4-.6 1.4-1.4 2.2-1.7 1-.4.8-.6-.7-.6-1.6-.1-2.3.5-2.3 1.6zM38.7 391.9c-1.7 1.8-1.7 1.8 1 1.8 1.5 0 2.3-.2 1.6-.4-.7-.2-.9-1.1-.6-1.9.7-1.8.2-1.7-2 .5zM39 396.1c-2.2.6-2 .7 1.3.8 3.8.1 4.7-.3 2.5-1.1-.7-.3-2.4-.1-3.8.3zM39.8 402.3c-1.6.6-2.8 1.5-2.8 2s.8.6 1.8.2c.9-.4 2.5-1 3.5-1.2.9-.3 1.7-.9 1.7-1.4 0-1.1-.7-1-4.2.4zM41 406c.8.5 2 1 2.5 1 .6 0 .3-.5-.5-1s-1.9-1-2.5-1c-.5 0-.3.5.5 1zM37 409.2c0 .4.9.8 2 .8s2-.4 2-.8-.9-.8-2-.8-2 .4-2 .8zM37 412.7c0 1.1.3 1.4.8.7.4-.6 1.4-1.4 2.2-1.7 1-.4.8-.6-.7-.6-1.6-.1-2.3.5-2.3 1.6zM38 417c-1.8 1.2-.2 1.2 2.5 0 1.3-.6 1.5-.9.5-.9-.8 0-2.2.4-3 .9zM38 420c-.8.5-1 1-.5 1 .6 0 1.7-.5 2.5-1s1.1-1 .5-1c-.5 0-1.7.5-2.5 1zM40 438.5c-.7.8-1.7 1.2-2.4.8-.8-.4-.8-.3 0 .6.8.9 1.7.8 3.7-.2 1.5-.8 2.4-1.7 2-2-1-1.1-2-.8-3.3.8zM37 442.4c0 .2.9.6 2 .9 1.1.3 2 .1 2-.4s-.9-.9-2-.9-2 .2-2 .4zM37 445c0 .5 1 1 2.3 1 1.8 0 1.9-.2.7-1-1.9-1.3-3-1.3-3 0zM37.5 448c.3.5 1.4 1 2.3 1 1.5 0 1.5-.2.2-1-2-1.3-3.3-1.3-2.5 0zM38 451c1.9 1.3 3 1.3 3 0 0-.6-1-1-2.2-1-1.9 0-2 .2-.8 1zM38 453c.8.5 2 1 2.5 1 .6 0 .3-.5-.5-1s-1.9-1-2.5-1c-.5 0-.3.5.5 1zM38 456c.8.5 2 1 2.5 1 .6 0 .3-.5-.5-1s-1.9-1-2.5-1c-.5 0-.3.5.5 1zM38.1 458.3c.9.7 1.8 1.9 2.2 2.7.4 1 .6.9.6-.6.1-1.4-.7-2.4-2.1-2.7-2-.5-2.1-.4-.7.6zM37.5 463c-.3.5.1 1 1 1s1.3-.5 1-1c-.3-.6-.8-1-1-1-.2 0-.7.4-1 1zM37.1 467.3c.2.1 1.2.9 2.2 1.6 1.4 1.2 1.7 1.1 1.7-.3 0-1-.8-1.6-2.2-1.6-1.2 0-1.9.1-1.7.3zM37.6 473.9c-.4.5.3.7 1.4.4 1.1-.3 2.8.1 3.8.8 1.5 1.3 1.6 1.2.3-.4-1.4-1.8-4.6-2.3-5.5-.8zM37 480.9c0 2 3.6 3.6 4.6 2 .3-.5-.4-.9-1.5-.9-1.2 0-2.1-.5-2.1-1.1 0-.5.5-.7 1.2-.3.7.4.8.3.4-.4-1.1-1.8-2.6-1.4-2.6.7zM37 484.6c0 .2.9.8 2 1.4 1.1.6 2 .7 2 .2 0-.6-.9-1.2-2-1.5-1.1-.3-2-.3-2-.1zM38 488c.8.5 2.2.9 3 .9 1 0 .8-.3-.5-.9-2.7-1.2-4.3-1.2-2.5 0zM37 490.1c0 .5.9.9 2 .9s2-.2 2-.4-.9-.6-2-.9c-1.1-.3-2-.1-2 .4zM36.5 492.9c-.3.6.4.9 1.5.8 1.1-.1 2-.5 2-.9 0-1.1-2.8-1-3.5.1zM37 500.1c0 .7.3 1 .6.7.3-.4 1.9-.2 3.5.2 1.7.5 2.9.5 2.9-.1 0-.5-.9-.9-1.9-.9-1.1 0-2.6-.3-3.5-.6-1-.4-1.6-.1-1.6.7zM38 508c.8.5 2.2.9 3 .9 1 0 .8-.3-.5-.9-2.7-1.2-4.3-1.2-2.5 0zM38 511c1.8 1.2 3 1.3 3 .2 0-.4-1-.9-2.2-.9-1.8-.2-2 0-.8.7zM37.1 513.4c.4.4 2.1 1.1 3.9 1.6 1.9.5 2.9.6 2.4.1-1-1-7.2-2.6-6.3-1.7zM38 516.9c-1.5.4-2 1-1.3 1.4 1.3.8 4.3-.1 4.3-1.4 0-.5-.1-.9-.2-.8-.2.1-1.4.4-2.8.8zM38.3 524.7c.9.2 2.3.2 3 0 .6-.3-.1-.5-1.8-.5-1.6 0-2.2.2-1.2.5zM38.5 529c-1.9.8-1.9.9.3.9 1.2.1 2.2-.4 2.2-.9 0-.6-.1-1-.2-.9-.2 0-1.2.4-2.3.9zM869.7 578.2c.4.7.6 2.4.5 3.8-.3 2.4-.2 2.4 1.3.6 1.7-2.3 2-1.4.5 1.5-.9 1.7-.7 1.9 1.7 1.8 1.9 0 2.3-.2 1.2-.7-1.2-.5-1.4-1.3-.8-2.7.7-1.9.8-1.9.8-.1.1 2 .1 2 1.7 0 1.4-1.8 1.5-1.8.8.5-1.6 6-.2 15.7 2.5 16.4 3 .7 8.3 0 9.1-1.3.6-.9.9-.9 1.2.1.8 2.3 1.9-14.5 1.2-17.9-.7-3.6-.5-3.6-9.9-1.8-6.9 1.4-9.5 1.2-9.5-.5 0-.5-.7-.9-1.6-.9-1 0-1.2.5-.7 1.2zM829.8 581.7c.7.3 1.6.2 1.9-.1.4-.3-.2-.6-1.3-.5-1.1 0-1.4.3-.6.6zM820.8 588.7l-6.8 1.6v11.8l2.1-2c1.2-1.1 1.9-2.6 1.6-3.5-.3-.9-.2-1.8.2-2.1 1-.6 2.1 4.3 2.1 9.4 0 5.1 1.7 7 5.6 6.4 3.6-.6 5.3-3.4 5.5-9.1.1-3.2.2-3 .9 1.5 1 6.9 1.6 8.3 3.5 8.3 2.6 0 4.6-6.5 4.4-13.8-.2-5.7-1.6-13.2-1.8-9.5-.1.6-1.3 1.3-2.8 1.5-2.1.2-2.9.9-3.1 2.8-.2 1.4-.8 2.9-1.4 3.5-.7.7-.9 0-.6-2.3.4-2.7.1-3.2-1.6-3.2-1.7-.1-1.5-.4.9-1.5 2.9-1.3 2.9-1.3.5-1.3-1.4 0-5.5.7-9.2 1.5zm-.6 3.5c-.7.7-1.2.8-1.2.2 0-1.4 1.2-2.6 1.9-1.9.2.3-.1 1.1-.7 1.7z"/><path d="M872 588c0 .5.5 1 1 1 .6 0 1-.5 1-1 0-.6-.4-1-1-1-.5 0-1 .4-1 1zM790 592c-1.3.8-1.3 1 .2 1 .9 0 2-.5 2.3-1 .8-1.3-.5-1.3-2.5 0zM781 599.9c0 .5-.9 1.1-2 1.4-1.2.3-2 1.4-2 2.6 0 2.7-1.7 2.7-2.5.1-.3-1.1-1.4-2-2.3-2-.9 0-2.8-.3-4.2-.6-1.8-.4-2.1-.3-1.1.4 1.1.8 1.4 3.2 1.2 9.8-.1 4.8-.4 9.2-.8 9.7-.3.6-.1.7.5.3.6-.3 1.4-.1 1.8.5.3.6.1 1.5-.6 1.9-.9.6-1.1 2.4-.6 6.6 1.2 10.4 1.5 11.1 4.2 11.1 2.4 0 2.4-.1 2.4-8.4 0-6.7-.3-8.5-1.6-9s-1.3-.7-.2-1.4c.7-.5 1.8-3.4 2.4-6.6l1.1-5.8.2 5.2c.1 4.2.4 5.3 1.8 5.3.9 0 1.4-.3 1-.6-.3-.4.1-1.3.9-2.2 1.2-1.2 1.8-1.2 2.4-.3.5.9.9.5 1.3-1.1 1.1-3.7.8-9.8-.4-9.8-.6 0-.8-.9-.4-2.1.5-1.4.2-2.5-.6-3-1.2-.8-1.1-1.1.1-1.9 1.3-.8 1.2-1-.2-1-1 0-1.8.4-1.8.9z"/><path d="M762.5 605.6c1.4 7.8 4.5 11.2 4.5 4.9 0-4.3-1.9-8.5-3.8-8.5-1.1 0-1.3.8-.7 3.6zM884.6 604.3c-1 .8-2.9 1.2-4.2.9-2.2-.4-2.4-.2-1.7 2.9.3 1.9 1 3.5 1.5 3.7 1.2.5 1 11.2-.2 11.2-.5 0-1 .8-1 1.7 0 1.4.9 1.8 4.5 1.9 4 .1 4.5-.1 4-1.7-.4-1.1-.2-1.9.2-1.9.5 0 .9-4.5.9-10 .1-10.4-.4-11.4-4-8.7zM727.9 609.5c-2 1.1-2.6 2.2-2.7 4.9-.1 2 .3 3.6.8 3.6.6 0 1-.5 1-1 0-.6.5-1 1.1-1 .7 0 .9.9.5 2.4s-.1 2.6.6 2.8c.8.3 1.1 2.2.9 5.2l-.2 4.8 3.8-.5c2.1-.3 4.2-.2 4.8.3.7.5 1.1-3.2 1.2-11.1l.3-11.9h-4.8c-2.6.1-5.9.7-7.3 1.5zm2.6 1.5c-.3.5-1.1 1-1.6 1-.6 0-.7-.5-.4-1 .3-.6 1.1-1 1.6-1 .6 0 .7.4.4 1zM825.9 613.1c-2.8 1-3.9 4.4-3.9 12 0 8.7 2 12 6.1 9.9 1.7-1 1.9-2.2 1.9-12 0-6.1-.3-11-.7-10.9-.5 0-2 .5-3.4 1zM907.2 614.5c0 1.6.2 2.2.5 1.2.2-.9.2-2.3 0-3-.3-.6-.5.1-.5 1.8zM835 614.9c-.5 1.1-1 5.6-1 10 0 7.3.2 8.1 1.9 8.1 2.6 0 3.1-1.9 3.1-11.6 0-6.7-.3-8.4-1.5-8.4-.8 0-1.9.9-2.5 1.9zM706 618c0 .5.5 1 1 1 .6 0 1-.5 1-1 0-.6-.4-1-1-1-.5 0-1 .4-1 1zM707.5 621c.3.5 1 1 1.6 1 .5 0 .9-.5.9-1 0-.6-.7-1-1.6-1-.8 0-1.2.4-.9 1zM778.3 623.7c-3.3 1.3-.3 17.3 3.2 17.3 1.3 0 1.5-1.3 1.3-8.7-.3-8.9-.9-10.1-4.5-8.6zM891.7 624.7c-.4.3-.7 1.1-.7 1.7 0 .6.5.5 1.2-.2.6-.6.9-1.4.7-1.7-.3-.3-.9-.2-1.2.2zM715.1 633.6c-.9 4.3-1 6.9-.4 7.5.7.7 1.3-1.4 1.7-6.1.4-4 .6-7.4.4-7.6-.3-.2-1 2.6-1.7 6.2zM893.6 632.5c-.3 1-1.9 1.5-4.7 1.5-6.4 0-21.9 2.3-21.3 3.1.4.8 1.8.7 18.4-1.4 7.6-1 9.5-1.6 9.8-3 .4-2.1-1.4-2.3-2.2-.2zM732.3 633.7c-1.2.2-2.6 1-3.2 1.7-1.1 1.3-.4 5.6 1 5.6.5 0 .6 1.8.3 4-.5 2.8-.2 4.3.9 5.5 1.8 1.7 4.3 2 5.2.4.4-.6 1.4-.8 2.2-.5 1.1.5 1.3.2.9-1-.3-.8-.6-4.9-.6-9 0-8.1 0-8-6.7-6.7zM680.9 636.5c-.3.5-.6 2.6-.7 4.5-.1 2.9 0 3.2.9 1.7.6-1 .9-3 .7-4.5-.2-1.5-.6-2.3-.9-1.7zM842.6 638.6c-.8 2.1-.8 2.4.3 2.4 1.2 0 2.2-2.8 1.2-3.5-.5-.3-1.2.2-1.5 1.1zM785.1 644.2c-.1 2.6.4 5 .9 5.3 1.2.7 1.2-3.8 0-7.5-.7-2-.8-1.6-.9 2.2zM836.9 641.5c-.3.2-3.3.6-6.8.9-8.2.6-9.2 1.6-1.5 1.5 5.6 0 15.5-2.7 10.8-2.8-1.1-.1-2.3.1-2.5.4zM817.3 644.7c.9.2 2.3.2 3 0 .6-.3-.1-.5-1.8-.5-1.6 0-2.2.2-1.2.5zM657.7 647.7c-1.6.4-1.8 1.2-1.3 5.6.3 2.9.5 6.5.6 8.1 0 2.4.2 2.6 1.5 1.6 1.1-.9 1.4-3.1 1.2-8.6-.1-4.1-.2-7.3-.2-7.3 0 .1-.8.3-1.8.6zM650.8 655.2c.4 5.7 1.5 8.9 2.6 7.7.2-.2.7-3.4 1.1-7.2.7-6.6.7-6.7-1.7-6.7s-2.4.2-2 6.2zM771.3 650.3c-7.1.9-10 2.7-4.6 2.7 4.2 0 15.7-2.1 16.8-3.1 1.1-1.1-2.4-1-12.2.4zM903.6 654.5c-.3.9-.6 1.7-.6 1.8 0 .1 2.1.3 4.6.3 3.7.2 4.5-.1 4.2-1.5-.4-2.3-7.3-2.8-8.2-.6zM740.5 655.1c-1 1.5.3 2.5 1.6 1.2.7-.7.7-1.3.1-1.7-.6-.3-1.4-.1-1.7.5zM688.3 661.4c-9 1.6-8.6 2.4 1.1 2.3 7.5-.2 8.6-.4 8.6-2 0-1.9-.8-2-9.7-.3zM661.9 662.5c-.1.3-.2 1.1-.3 1.7 0 .7-2.3 1.8-4.9 2.5-7.5 1.8-7.7 2.4-.7 1.7 6.9-.6 9.5-2 8.4-4.7-.6-1.6-2.2-2.3-2.5-1.2zM714 670.9c0 .6.5 1.3 1 1.6.6.3 1-.1 1-.9 0-.9-.4-1.6-1-1.6-.5 0-1 .4-1 .9zM882.7 673.6c-1.8 2.4-1.3 3.1 1.1 1.5.8-.5 1.2-1.5 1-2.4-.2-1.2-.7-1-2.1.9zM910.2 674c0 1.4.2 1.9.5 1.2.2-.6.2-1.8 0-2.5-.3-.6-.5-.1-.5 1.3zM911.1 681.6c0 1.1.3 1.4.6.6.3-.7.2-1.6-.1-1.9-.3-.4-.6.2-.5 1.3zM892.2 683.9c-.9.5-.8 1.2.3 2.7 1.3 1.6 1.6 1.7 2.5.4.5-.8 1-1.8 1-2.1 0-1.1-2.6-1.8-3.8-1zM736.2 685.2c-1.4 1.4-1.6 2.8-.3 2.8.9 0 2.4-3 1.8-3.6-.2-.2-.9.2-1.5.8zM883 685c0 .5 1.2 1 2.6 1 1.4 0 2.3-.4 1.9-1-.3-.6-1.5-1-2.6-1-1 0-1.9.4-1.9 1zM877.8 685.7c.7.3 1.6.2 1.9-.1.4-.3-.2-.6-1.3-.5-1.1 0-1.4.3-.6.6zM829.9 691.5c-.3.2-2.3.5-4.4.6-6.3.3-8.8 1-7.6 2.2.7.7 1.5.6 2.5-.2 1.2-1 1.3.3.9 9.1-.2 5.7-.1 10.8.4 11.4 1.4 1.9 7.6 2.5 9.7.9 1.5-1.2 1.9-2.6 1.7-7.2-.1-3.1.1-5.4.5-5 .4.3.8 2.7.9 5.1.2 5.2 2.1 8.2 4.1 6.5.7-.6 1.8-.8 2.4-.4.8.5.9-2.3.5-9.7-.8-12.8-.8-12.7-3.9-12.1-2.2.5-2.6 1.1-2.6 3.9 0 1.8-.4 3.6-1 3.9-.6.4-1-.6-1-2.4 0-1.6-.5-3.3-1.1-3.6-.6-.4-.8-1.3-.5-2.1.5-1.3-.5-1.9-1.5-.9zM769.6 693.8c-.2.1-1.6.5-3.2.8-5.2.8-5.8 1.2-4.4 2.9.9 1.1 1.6 1.2 2.5.5.7-.6 4.4-1 8.2-.9 4.7.1 7.8-.3 9.9-1.4 1.6-.9 2.7-1.7 2.4-1.7-1.4-.3-15.2-.5-15.4-.2zM726.5 696c-2.2.6-2.5.8-1 1 1.1.1 2.5.1 3 0 .6-.2 4.1-.2 7.9-.2 3.8.1 6.6-.1 6.3-.4-1-1-12.8-1.3-16.2-.4zM779 707.4c0 9.5.8 11.8 3.5 9.6 2.2-1.8 2.8.5 2.6 10.8-.1 7.3-.5 9.8-1.6 10.4-.8.5-1.2 1.5-.9 2.2.3.9-.2 1.6-1.3 1.8-1.5.3-1.5.5.5 1 1.7.5 2.2.2 2.2-1.3 0-1 .5-1.9 1-1.9.6 0 1 .4 1 1 0 .5.5 1 1.1 1 .6 0 .8-.8.5-1.8-.2-.9-.7-9.6-1.1-19.2-.7-19.4-1.5-23-5.1-23-2.4 0-2.4.2-2.4 9.4zM729 699.9c-2 .8-2 3.6 0 3.6 1.2 0 1.6 2.1 2.2 10.4.4 5.7 1.2 10.9 1.7 11.4.8.8 1.1.7 1.1-.2 0-.9.8-1.1 2.5-.7 1.8.5 2.5.2 2.5-.9 0-.8.5-1.5 1.1-1.5.6 0 .9-3.3.8-9.3-.2-13.7-.2-13.7-5.8-13.5-2.5 0-5.3.3-6.1.7zM682.6 700.9c-1.6.3-3.1 1.2-3.4 2-.3.8 0 1.1.7.7.7-.5.9-.1.5.8-.4 1.1 0 1.6 1 1.6 1.1 0 1.6.9 1.6 2.7 0 1.6.3 4.5.6 6.6.6 3.2 1 3.7 3 3.4 3.1-.4 3.1-.4 3.8-6.6.9-7.7 1.6-7.6 1.6.1 0 5.8.2 6.6 2.1 7.1 1.2.3 1.9.3 1.6 0-.3-.3-.2-1.5.2-2.7.4-1.1.5-4.9.2-8.4-.4-3.4-.3-6.2.1-6.2s.8-.5.8-1c0-1.1-9.6-1.2-14.4-.1zm10.4 2.5c0 .3-.4.8-1 1.1-.5.3-1 .1-1-.4 0-.6.5-1.1 1-1.1.6 0 1 .2 1 .4zM769.4 702.2c-1 3.3-.5 15 .8 16.5.6.8.7 2.8.3 4.9-.3 2-.3 7 0 11 .7 7.3.8 7.4 3.6 7.4 1.6 0 2.9-.5 2.9-1.3 0-.6.3-2.3.7-3.7.6-2.1.4-2.3-.9-1.3-.8.7-1.7 1-2.1.7-.3-.3-.3.5 0 1.8.6 2.2.6 2.2-1 .6-1.3-1.3-1.7-3.4-1.6-9 0-5 .3-6.7.9-5.3.8 1.8.9 1.8 1-.5 0-1.4.7-3.6 1.5-5 .9-1.6 1.4-5.5 1.5-10.8V700h-3.4c-2.7 0-3.6.5-4.2 2.2zm5.7 6c.1 3.6-.1 7-.5 7.7-1.1 1.7-3.6-1.3-3.5-4.1l.2-2.3.4 2.2c.2 1.3.9 2.3 1.4 2.3.6 0 .8-1.2.4-2.9-.6-2.7.3-10.6 1.1-9.9.2.2.4 3.3.5 7zM652.8 702.7c-1 .2-1.8 1.1-1.8 1.9 0 .8-.5 1.4-1.1 1.4-.6 0-.9-.7-.5-1.5.3-.8.1-1.5-.4-1.5-1.5 0-3 3.7-2.6 6.2.3 1.3.5 4.3.5 6.7.1 6 .9 4.8 1.6-2.4.8-7.7 1.5-8.3 1.5-1.2 0 3 .3 6.2.6 7.1.9 2.3 4.5 2 5.1-.4.6-2.4 2.3-1.6 2.3 1.1 0 2.1 2.6 2.6 3.2.6.2-.6.3-5 .3-9.7v-8.5l-3.5-.2c-1.9 0-4.3.1-5.2.4zm4.3 2.3c.5 0 .9 1.6.9 3.6 0 2.1-.4 3.3-1 2.9-.5-.3-1-1.6-1-2.7s-.8-2.7-1.7-3.5c-1.7-1.4-1.7-1.4 0-.9 1 .3 2.3.6 2.8.6z"/><path d="M728.1 708.6c0 1.1.3 1.4.6.6.3-.7.2-1.6-.1-1.9-.3-.4-.6.2-.5 1.3zM714.6 711.6c-2 1.9-2.1 2.8-.2 2.1.7-.3 1.9 0 2.5.6.8.8 1.1.5 1.1-1 0-2.9-1.5-3.7-3.4-1.7zM823.5 719.2c-.2.7-.3 4.7-.2 8.8.2 6.6.4 7.5 2.2 7.8 1.1.2 2.4.8 2.9 1.3.5.4 1.7.4 2.8-.2 1.5-.8 1.8-2.2 1.8-9.7v-8.7l-4.5-.3c-3-.1-4.7.2-5 1zM877 720.1c0 1.1.5 1.7 1 1.4.6-.3 1-1.3 1-2.1s-.4-1.4-1-1.4c-.5 0-1 .9-1 2.1zM835.7 719.7c-.9.8-.7 11.1.2 14.3.5 1.5 1.4 2.3 2.2 2.1.8-.2 2-.4 2.7-.4.8 0 1.2-2.4 1.2-8.4V719h-2.8c-1.6 0-3.2.3-3.5.7zM687 721.8c-2.2.7-3 2.3-3 5.9 0 3.1.2 3.3 3.5 3.3s3.5-.2 3.5-3.3c0-3.9-1.9-6.7-4-5.9zM775.8 725.7c.5 7.6 1 8.3 1.1 1.5 0-3.4-.2-6.2-.7-6.2-.4 0-.6 2.1-.4 4.7zM780 722.9c0 .5.5 1.3 1 1.6.6.3 1 .2 1-.4 0-.5-.4-1.3-1-1.6-.5-.3-1-.2-1 .4zM693 726c0 1.8.6 3.3 1.5 3.7 2.2.8 2.6.1 1.9-3.5-.8-4.2-3.4-4.2-3.4-.2zM651.3 724.7c-.7.2-1.3 1.8-1.3 3.4 0 2.2.5 2.9 1.9 2.9 1.9 0 3.9-1.8 3.9-3.5 0-1.2-1.8-3.5-2.7-3.4-.3 0-1.2.3-1.8.6zM658.4 726.4c-.9 2.2.2 4.6 2.1 4.6 1.2 0 1.5-.8 1.3-2.7-.3-3-2.5-4.2-3.4-1.9zM843.3 742.6c-.3.8-1.1 1.3-1.8 1-.7-.2-5.4-.8-10.4-1.1-7.7-.6-9.1-.5-9.1.8 0 .8-1 2.1-2.1 2.9-2 1.3-1.3 1.4 6.7 1.1 14.9-.6 15.8-.7 17.7-2.6.9-.9 1.7-2.2 1.7-2.7 0-1.6-2-1.2-2.7.6zM641.6 749.8c-.3.6-.1 1.4.5 1.7 1.4.9 2 .2 1-1.4-.6-.8-1.1-.9-1.5-.3zM651 751.5c-1 1.2-1 1.5.3 1.5.8 0 2-.7 2.7-1.5 1-1.2 1-1.5-.3-1.5-.8 0-2 .7-2.7 1.5z"/></svg>